/* XPM */
static const char *epspline_24x24[] = {
/* columns rows colors chars-per-pixel */
"24 24 16 1 ",
"  c #060604",
". c #212519",
"X c #522710",
"o c #095A5A",
"O c #636462",
"+ c #8B0000",
"@ c #F10000",
"# c #B6B626",
"$ c #CDCD00",
"% c #FEFE00",
"& c #2DC2C5",
"* c #04F7F9",
"= c #9CA1A1",
"- c #FFFF87",
"; c #D1D3D3",
": c #FEFEFE",
/* pixels */
"%%%%%%%%%%%%%%%#.X$%%%%%",
"%-------------X .. O---%",
"%-:::::::::::; o**o.::-%",
"$#;;;;;::::::& &**o ;:-%",
".     X:::&***.o*& O::-%",
" o&&&.O****&oOO    =::-%",
" o***oo**= O;::;O=::::-%",
" o***..:; O:::::::::::-%",
" o***oO:O ::::::::::::-%",
".     .:; O:::::::::::-%",
"#O=OO==::O X::::::::::-%",
"%-::::::::=  =::::::::-%",
"%-:::::::::;. O:::::;:-%",
"%-:::::::::::O ;::=.  O%",
"%-::::::::::::..:;  +X #",
"%-::::::::::::.O:= @@@..",
"%-:::::::::::O =:O @@@X ",
"%-::::;OO;::O O::; X@+ #",
"%-:::O    O  O::::O   .$",
"%-::: X@@  O;:::::::=;-%",
"%-::= @@@+ ;::::::::::-%",
"%-::; +@@+ :::::::::::-%",
"%----X    O------------%",
"%%%%%$#X.#%%%%%%%%%%%%%%"
};
