/* XPM */
static const char *epspline_48x48[] = {
/* columns rows colors chars-per-pixel */
"48 48 16 1 ",
"  c #020202",
". c #2C2918",
"X c #304B33",
"o c #616262",
"O c #A00000",
"+ c #F80000",
"@ c #9E9E04",
"# c #D2D206",
"$ c #FFFF07",
"% c #20ABAE",
"& c #0DDADC",
"* c #00FBFD",
"= c #979797",
"- c #96FCFF",
"; c #D1D7D7",
": c #FFFFFF",
/* pixels */
"$$$$$$$$$$$$$$$$$$$$$$$$$$$$$$$@@..@#$$$$$$$$$$$",
"$$$$$$$$$$$$$$$$$$$$$$$$$$$$$#.      X$$$$$$$$$$",
"$$$$$$$$$$$$$$$$$$$$$$$$$$$$#         .$$$$$$$$$",
"$$$:::::::::::::::::::::::::X   %%%X   =:::::$$$",
"$$$::::::::::::::::::::::::;   &****X  .:::::$$$",
"$$$::::::::::::::::::::::::o  X******   ;::::$$$",
"$$#::::::::::::::::::::::::o  %******X  ;::::$$$",
"@@@======o===;:::::::::::-*X  %******   ;::::$$$",
".            =:::::::--****%  .*****%   :::::$$$",
".            o:::;-&*******&   X***%   o:::::$$$",
".  XX%%X%X.  =--****&*&*&%Xoo    .    .;:::::$$$",
".  &*****&%  %*******&%X X-::o       .;::::::$$$",
".  &******X  %****&%   .;:::::;.    o::::::::$$$",
".  &******%  %*-::o   o::::::::::;;::::::::::$$$",
".  &******%  o:::=   =:::::::::::::::::::::::$$$",
".  &******X  =:::.  o::::::::::::::::::::::::$$$",
".  &******%  o:::   :::::::::::::::::::::::::$$$",
".  %*&&*&&X  =:::   :::::::::::::::::::::::::$$$",
".            =:::   =::::::::::::::::::::::::$$$",
".            =:::=   =:::::::::::::::::::::::$$$",
".. .. . . . .=::::.   o::::::::::::::::::::::$$$",
"$$$:::::::::::::::;.   .=::::::::::::::::::::$$$",
"$$$:::::::::::::::::X    X;::::::::::::::::::$$$",
"$$$::::::::::::::::::=.    o:::::::::::::::::$$$",
"$$$::::::::::::::::::::o    X::::::::::::::::$$$",
"$$$:::::::::::::::::::::;X   X:::::::::;==;::$$$",
"$$$:::::::::::::::::::::::=   o::::::;X     o$$$",
"$$$::::::::::::::::::::::::=   ;::::=        .#$",
"$$$:::::::::::::::::::::::::X  =:::;    ...   .$",
"$$$:::::::::::::::::::::::::=  o:::.  .O+++O   @",
"$$$:::::::::::::::::::::::::=  o:::   ++++++O  X",
"$$$:::::::::::::::::::::::::.  =::;  .+++++++  .",
"$$$::::::::::::::::::::::::o   :::=  .+++++++   ",
"$$$:::::::::::::::::::::::=   o:::;   ++++++O  .",
"$$$:::::::::::;==;:::::::o   o:::::   O+++++   @",
"$$$:::::::::=     .;:::;X   X::::::=   OO+O.   #",
"$$$::::::::X        =:=    X::::::::X         @$",
"$$$:::::::o    ..         =:::::::::;o       @$$",
"$$$::::::;   O++++.     X;::::::::::::=o..Xo;$$$",
"$$$::::::o  .++++++    =:::::::::::::::::::::$$$",
"$$$::::::X  O++++++.  =::::::::::::::::::::::$$$",
"$$$::::::.  +++++++O  =::::::::::::::::::::::$$$",
"$$$::::::o  O++++++   =::::::::::::::::::::::$$$",
"$$$::::::=   +++++O   :::::::::::::::::::::::$$$",
"$$$:::::::.   O+OO   o:::::::::::::::::::::::$$$",
"$$$$$$$$$$@         .$$$$$$$$$$$$$$$$$$$$$$$$$$$",
"$$$$$$$$$$$@       .#$$$$$$$$$$$$$$$$$$$$$$$$$$$",
"$$$$$$$$$$$$$@.  @@$$$$$$$$$$$$$$$$$$$$$$$$$$$$$"
};
