/* XPM */
static const char *epspline_64x64[] = {
/* columns rows colors chars-per-pixel */
"64 64 16 1 ",
"  c #020202",
". c #2D2C1B",
"X c #42441E",
"o c #636363",
"O c #A00000",
"+ c #F90000",
"@ c #A3A300",
"# c #CBCB00",
"$ c #FFFF07",
"% c #007D81",
"& c #17BDBE",
"* c #0ADDDF",
"= c #00FBFD",
"- c #9AA5A6",
"; c #CFD4D4",
": c #FFFFFF",
/* pixels */
"$$$$$$$$$$$$$$$$$$$$$$$$$$$$$$$$$$$$$$$$$$@@XX@@#$$$$$$$$$$$$$$$",
"$$$$$$$$$$$$$$$$$$$$$$$$$$$$$$$$$$$$$$$$#        @$$$$$$$$$$$$$$",
"$$$$$$$$$$$$$$$$$$$$$$$$$$$$$$$$$$$$$$$X          X$$$$$$$$$$$$$",
"$$$$$$$$$$$$$$$$$$$$$$$$$$$$$$$$$$$$$$X            X$$$$$$$$$$$$",
"$$$$:::::::::::::::::::::::::::::::::-     %&%%     -:::::::$$$$",
"$$$$:::::::::::::::::::::::::::::::::.    *====*.   .;::::::$$$$",
"$$$$::::::::::::::::::::::::::::::::;    *======*    ;::::::$$$$",
"$$$$::::::::::::::::::::::::::::::::-   .========%   o::::::$$$$",
"$$$$::::::::::::::::::::::::::::::::o   %========%   o::::::$$$$",
"$$$$:::::::::::::::::::::::::::::::;%   %========%   X::::::$$$$",
"X    .    .    . .::::::::::::::;===%   .========%   -::::::$$$$",
"X                 ::::::::::;**=====*    &======&    -::::::$$$$",
"X                 ::::::;;====*======     &===*&.   .:::::::$$$$",
"X                 :::;*============*&.     %%%%     -:::::::$$$$",
"X   &=*==*=***    ;=============&% .-:o            o::::::::$$$$",
".   &=========    ==========*%.   -::::o          o:::::::::$$$$",
"X   &=========    =======*o     o:::::::;.      .-::::::::::$$$$",
"X   &========*    ====;:-     X;::::::::::;-oo-;::::::::::::$$$$",
"X   &========*    =;:::;.    o;:::::::::::::::::::::::::::::$$$$",
"X   &=========    :::::o    -:::::::::::::::::::::::::::::::$$$$",
"X   &========*    :::::    o::::::::::::::::::::::::::::::::$$$$",
".   &=========    ::::-   .:::::::::::::::::::::::::::::::::$$$$",
"X   &=========    ::::-   o:::::::::::::::::::::::::::::::::$$$$",
"X   &*********    ::::-   o:::::::::::::::::::::::::::::::::$$$$",
"X                 ::::;    ;::::::::::::::::::::::::::::::::$$$$",
"X                 :::::.   .;:::::::::::::::::::::::::::::::$$$$",
"X                 :::::-    .;::::::::::::::::::::::::::::::$$$$",
"X. . .... .. .....::::::o     -:::::::::::::::::::::::::::::$$$$",
"$$$$:::::::::::::::::::::X     .;:::::::::::::::::::::::::::$$$$",
"$$$$::::::::::::::::::::::o      o;:::::::::::::::::::::::::$$$$",
"$$$$:::::::::::::::::::::::-      .-::::::::::::::::::::::::$$$$",
"$$$$:::::::::::::::::::::::::o      .;::::::::::::::::::::::$$$$",
"$$$$::::::::::::::::::::::::::;.      ;:::::::::::::::::::::$$$$",
"$$$$::::::::::::::::::::::::::::-      -::::::::::::::::::::$$$$",
"$$$$:::::::::::::::::::::::::::::;o     ;::::::::::;-o..o-;:$$$$",
"$$$$:::::::::::::::::::::::::::::::-    .:::::::::o        o$$$$",
"$$$$::::::::::::::::::::::::::::::::-    -::::::;X          .#$$",
"$$$$:::::::::::::::::::::::::::::::::o   .::::::.             $$",
"$$$$:::::::::::::::::::::::::::::::::;    ;::::-     OOOO     X$",
"$$$$::::::::::::::::::::::::::::::::::.   ;:::;    .++++++.    #",
"$$$$::::::::::::::::::::::::::::::::::    ;:::-    ++++++++    @",
"$$$$:::::::::::::::::::::::::::::::::;    ::::o   O++++++++O   X",
"$$$$:::::::::::::::::::::::::::::::::o   .::::X   O++++++++O    ",
"$$$$::::::::::::::::::::::::::::::::o    -::::X   O+++++++++   .",
"$$$$:::::::::::::::::::::::::::::::o    .:::::o   O++++++++O   X",
"$$$$::::::::::::::::::::::::::::::o    .;:::::-    ++++++++    @",
"$$$$:::::::::::::;-o..o-;::::::::o     ;::::::;    .++++++O    #",
"$$$$::::::::::::-        o:::::-     .;::::::::o     OO+O     X$",
"$$$$::::::::::;X          .;::o      ;::::::::::.            .$$",
"$$$$::::::::::.             o      .;:::::::::::;.           #$$",
"$$$$:::::::::-     OO+O           -:::::::::::::::o        o$$$$",
"$$$$::::::::;     ++++++O       .;:::::::::::::::::;oo..oo;:$$$$",
"$$$$::::::::-    ++++++++      -::::::::::::::::::::::::::::$$$$",
"$$$$::::::::o   O++++++++O   .::::::::::::::::::::::::::::::$$$$",
"$$$$::::::::X   O+++++++++    ::::::::::::::::::::::::::::::$$$$",
"$$$$::::::::X   O+++++++++    ::::::::::::::::::::::::::::::$$$$",
"$$$$::::::::o   O++++++++O   X::::::::::::::::::::::::::::::$$$$",
"$$$$::::::::-    ++++++++    o::::::::::::::::::::::::::::::$$$$",
"$$$$:::::::::    .++++++O    ;::::::::::::::::::::::::::::::$$$$",
"$$$$:::::::::o     O+OO     o:::::::::::::::::::::::::::::::$$$$",
"$$$$$$$$$$$$$$.             $$$$$$$$$$$$$$$$$$$$$$$$$$$$$$$$$$$$",
"$$$$$$$$$$$$$$#.          .#$$$$$$$$$$$$$$$$$$$$$$$$$$$$$$$$$$$$",
"$$$$$$$$$$$$$$$$X        X$$$$$$$$$$$$$$$$$$$$$$$$$$$$$$$$$$$$$$",
"$$$$$$$$$$$$$$$$$#@X..XX#$$$$$$$$$$$$$$$$$$$$$$$$$$$$$$$$$$$$$$$"
};
