/* XPM */
static const char* epspline_xpm [] = {
/* columns rows colors chars-per-pixel */
"32 32 16 1 ",
"  c #050503",
". c #313321",
"X c #335C2C",
"o c #585959",
"O c #A80000",
"+ c #D90000",
"@ c #F90000",
"# c #949400",
"$ c #FFFF07",
"% c #1FACAE",
"& c #07D8DA",
"* c #01F9FC",
"= c #9C9C9C",
"- c #ABFDFF",
"; c #D2D9D9",
": c #FFFFFF",
/* pixels */
"$$$$$$$$$$$$$$$$$$$$#X..#$$$$$$$",
"$$$$$$$$$$$$$$$$$$$#     #$$$$$$",
"$$::::::::::::::::=  %&%  =:::$$",
"$$::::::::::::::::o %***% o:::$$",
"$$:::::::::::::;::. &***& .:::$$",
".        :::::--**X %**&% o:::$$",
"         ::-******%  %%%  =:::$$",
"  &****  *****&%.o;o     o::::$$",
". &****  **-%. o;:::;o.o=:::::$$",
". &****  -:;  o:::::::::::::::$$",
"  &****  ::o o::::::::::::::::$$",
". &**&*  ::o =::::::::::::::::$$",
"         ::= .::::::::::::::::$$",
".        :::  .;::::::::::::::$$",
"$$::::::::::;.  =:::::::::::::$$",
"$$::::::::::::o  .;:::::::::::$$",
"$$:::::::::::::=   =::::::::::$$",
"$$::::::::::::::;o  ;::::=X .=$$",
"$$::::::::::::::::o o:::o     .$",
"$$:::::::::::::::::  ;:=  O+O  #",
"$$:::::::::::::::::  ::o O@@@O .",
"$$::::::::::::::::o o::  +@@@@  ",
"$$:::::::::::::::o  ;::. O@@@O .",
"$$::::::=o .=::;o  =:::=  O@O  #",
"$$:::::o     .o   =:::::o     .$",
"$$::::=  O+O    o::::::::=. .=$$",
"$$::::. O@@@O  ;::::::::::::::$$",
"$$::::. +@@@@  :::::::::::::::$$",
"$$::::. O@@@O .:::::::::::::::$$",
"$$::::=  O@O  =:::::::::::::::$$",
"$$$$$$$.     .$$$$$$$$$$$$$$$$$$",
"$$$$$$$$#. .#$$$$$$$$$$$$$$$$$$$"
};
