/* XPM */
static const char *epspline_16x16[] = {
/* columns rows colors chars-per-pixel */
"16 16 16 1 ",
"  c #11100C",
". c #1D2926",
"X c #511B0C",
"o c #106969",
"O c #616464",
"+ c #656707",
"@ c #C90F00",
"# c None",
"$ c #D6D603",
"% c #8E8F03",
"& c #05F3F5",
"* c #2CCBCE",
"= c #9A9A9A",
"- c #FDFDFD",
"; c #CCD3D3",
": c #96F9FC",
/* pixels */
"#########$+ %###",
"#--------Oo*.;-#",
"%===;---:.*&o=-#",
" oo.o:&&oo . --#",
" &&oo:.O--;=---#",
" &&oO;.--------#",
"    =;.;-------#",
"#-----; O------#",
"#------;O.--;=;#",
"#--------O=- X +",
"#--------O==X@@X",
"#---;=--O.-;X@XX",
"#--=XX XO---O X$",
"#-- @@XO-------#",
"#--OX@ ;-------#",
"###$X +#########"
};
