/* XPM */
static char * Question_xpm[] = {
"16 16 10 1",
" 	c None",
".	c #BABAB7",
"+	c #040403",
"@	c #FA444B",
"#	c #FA8F8A",
"$	c #000000",
"%	c #7A7A78",
"&	c #DA0403",
"*	c #BA0403",
"=	c #FADAD2",
"     .++++.     ",
"    .+@##@+.    ",
"   .+@#$$#@+.   ",
"    .$$  $#+%.  ",
"         $#&+%  ",
"         $@+%.  ",
"      %$$#@+.   ",
"      +##@+.    ",
"      +@++.     ",
"      +&+.      ",
"      +*+%      ",
"      %+%.      ",
"     .+=@+.     ",
"     .+@&+.     ",
"      %++%      ",
"       ..       "};
