/* XPM */
static char *Binocular_xpm[] = {
/* columns rows colors chars-per-pixel */
"16 16 129 2",
"   c #705252",
".  c gray26",
"X  c #3A3A3A",
"o  c #5A5A5A",
"O  c gray29",
"+  c #3F3F3F",
"@  c gray50",
"#  c #343434",
"$  c #252525",
"%  c gray32",
"&  c gray38",
"*  c gray24",
"=  c #4B4B4B",
"-  c gray60",
";  c #464646",
":  c gray21",
">  c #655050",
",  c #7E7E7E",
"<  c gray28",
"1  c #484848",
"2  c #2D2D2D",
"3  c gray20",
"4  c #533F3F",
"5  c #4E4E4E",
"6  c #653737",
"7  c #393939",
"8  c gray35",
"9  c gray16",
"0  c gray8",
"q  c #511313",
"w  c #2F2F2F",
"e  c #313131",
"r  c #1E1E1E",
"t  c gray15",
"y  c #434343",
"u  c gray17",
"i  c #4A2B2B",
"p  c #5D5D5D",
"a  c gray73",
"s  c #470A0A",
"d  c #1E0A0A",
"f  c #373737",
"g  c #5B5B5B",
"h  c gray75",
"j  c gray53",
"k  c #2C2C2C",
"l  c #3D0000",
"z  c #140000",
"x  c #753737",
"c  c #626262",
"v  c #A4A4A4",
"b  c gray44",
"n  c gray9",
"m  c #272727",
"M  c #505050",
"N  c gray46",
"B  c #4C4C4C",
"V  c #7C7C7C",
"C  c #909090",
"Z  c #646464",
"A  c #703232",
"S  c gray43",
"D  c gray47",
"F  c #838383",
"G  c gray12",
"H  c gray40",
"J  c #565656",
"K  c #656565",
"L  c #1D1D1D",
"P  c #535353",
"I  c #232323",
"U  c #515151",
"Y  c gray19",
"T  c #111111",
"R  c #682B2B",
"E  c #5D2F2F",
"W  c gray100",
"Q  c gray100",
"!  c gray100",
"~  c gray100",
"^  c gray100",
"/  c gray100",
"(  c gray100",
")  c gray100",
"_  c gray100",
"`  c gray100",
"'  c gray100",
"]  c gray100",
"[  c gray100",
"{  c gray100",
"}  c gray100",
"|  c gray100",
" . c gray100",
".. c gray100",
"X. c gray100",
"o. c gray100",
"O. c gray100",
"+. c gray100",
"@. c gray100",
"#. c gray100",
"$. c gray100",
"%. c gray100",
"&. c gray100",
"*. c gray100",
"=. c gray100",
"-. c gray100",
";. c gray100",
":. c gray100",
">. c gray100",
",. c gray100",
"<. c gray100",
"1. c gray100",
"2. c gray100",
"3. c gray100",
"4. c gray100",
"5. c gray100",
"6. c gray100",
"7. c gray100",
"8. c gray100",
"9. c gray100",
"0. c gray100",
"q. c gray100",
"w. c gray100",
"e. c gray100",
"r. c gray100",
"t. c gray100",
"y. c gray100",
"u. c gray100",
"i. c None",
/* pixels */
"i.i.i.i.i.i.i.i.i.i.i.i.i.i.i.i.",
"i.i.  . X X o i.i.o X X .   i.i.",
"i.i.O + @ # $ i.i.$ % & # O i.i.",
"i.i.* = - ; : > > : & , < * i.i.",
"i.i.: 1 & 2 3 4 4 3 3 5 . : i.i.",
"i.6 7 8 9 0 5 q q 5 0 w 1 e i.i.",
"i.. # . r t * $ $ * t r y u i i.",
"i.X p a - 2 s d d s & a - 9 X i.",
"i.f g h j k l z z l g h j k f i.",
"x k c v b k n m m n M v N B k x ",
"p # V C Z k X A A X < C S V # p ",
"5 : D F p k X i.i.X . F Z D : 5 ",
"5 G M H J 2 X i.i.X w K J = L 5 ",
"5 n + P 7 r X i.i.X I U 7 Y T 5 ",
"R X X X X X E i.i.E X X X X X R ",
"i.i.i.i.i.i.i.i.i.i.i.i.i.i.i.i."
};
