/* XPM */
static char *Copy_xpm[] = {
/* columns rows colors chars-per-pixel */
"16 16 129 2",
"   c #979797",
".  c #585858",
"X  c #A18D8D",
"o  c #162828",
"O  c #535353",
"+  c #4D5F5F",
"@  c #466666",
"#  c #344747",
"$  c #3E3E3E",
"%  c #343434",
"&  c #676767",
"*  c #977979",
"=  c #425454",
"-  c #DBBEBE",
";  c #D4DDDD",
":  c #D9F8F8",
">  c #9FB1B1",
",  c gray66",
"<  c #BBBBBB",
"1  c #515151",
"2  c #3C6060",
"3  c #D5CACA",
"4  c #C7E9E9",
"5  c #BFF1F1",
"6  c gray62",
"7  c #7B7B7B",
"8  c gray52",
"9  c DimGray",
"0  c #606060",
"q  c #767676",
"w  c #735F5F",
"e  c #7D6363",
"r  c #454E4E",
"t  c #DEB8B8",
"y  c #DAD7D7",
"u  c #CDD9D9",
"i  c gray26",
"p  c #111E1E",
"a  c #2E2626",
"s  c #233333",
"d  c #151B1B",
"f  c #252525",
"g  c gray50",
"h  c #965858",
"j  c #3F5A5A",
"k  c #D8C4C4",
"l  c #CDE3E3",
"z  c #B8DDDD",
"x  c #5E8787",
"c  c #EBBABA",
"v  c #BEEDED",
"b  c #C8F6F6",
"n  c #768989",
"m  c #C6C6C6",
"M  c gray54",
"N  c #4B4B4B",
"B  c #D8D8D8",
"V  c gray89",
"C  c #686868",
"Z  c #A7A7A7",
"A  c #687575",
"S  c #EEB4B4",
"D  c #CCDBDB",
"F  c #DFEEEE",
"G  c #979E9E",
"H  c #838383",
"J  c #898989",
"K  c #4E4E4E",
"L  c #AEDFDF",
"P  c #5A9090",
"I  c #EABDBD",
"U  c #B7F6F6",
"Y  c #BCFAFA",
"T  c #BFFDFD",
"R  c #C0FFFF",
"E  c #C0FEFE",
"W  c #729797",
"Q  c #C2DBDB",
"!  c #637E7E",
"~  c #EDB7B7",
"^  c #C5E4E4",
"/  c #D3F2F2",
"(  c #DCFBFB",
")  c #DFFFFF",
"_  c #DEFDFD",
"`  c #819494",
"'  c #4E6767",
"]  c gray36",
"[  c #AB9191",
"{  c #9E8A8A",
"}  c #EBFAFA",
"|  c #EFFFFF",
" . c #EDFCFC",
".. c #899292",
"X. c #335B5B",
"o. c #8B7373",
"O. c #6A9999",
"+. c #3F5B5B",
"@. c gray69",
"#. c gray100",
"$. c gray100",
"%. c gray100",
"&. c gray100",
"*. c gray100",
"=. c gray100",
"-. c gray100",
";. c gray100",
":. c gray100",
">. c gray100",
",. c gray100",
"<. c gray100",
"1. c gray100",
"2. c gray100",
"3. c gray100",
"4. c gray100",
"5. c gray100",
"6. c gray100",
"7. c gray100",
"8. c gray100",
"9. c gray100",
"0. c gray100",
"q. c gray100",
"w. c gray100",
"e. c gray100",
"r. c gray100",
"t. c gray100",
"y. c gray100",
"u. c gray100",
"i. c None",
/* pixels */
"  . . . . . . . X i.i.i.i.i.i.i.",
". o O + @ # $ % & * i.i.i.i.i.i.",
". = - ; : > , < 1 1 * i.i.i.i.i.",
". 2 3 4 5 6 7 8 9 0 q w e i.i.i.",
". r t y u i p a s s d f f g h i.",
". j k l z i x c v b n m M N q h ",
". j k l z i x c v b n B V C i Z ",
". r t y u i A S D F G H J K i Z ",
". 2 3 4 L i P I U Y T R E W i Z ",
". = - ; Q i ! ~ ^ / ( ) _ ` i Z ",
". o O + ' i ! ~ ^ / ( ) _ ` i Z ",
"  . . . ] i P I U Y T R E W i Z ",
"i.[ [ [ { i A S D F } |  ...i Z ",
"i.i.i.i.i.i X.o.O.O.O.O.O.+.i Z ",
"i.i.i.i.i.q i i i i i i i i q @.",
"i.i.i.i.i.h Z Z Z Z Z Z Z Z @.i."
};
