/* XPM */
static char *Cut_xpm[] = {
/* columns rows colors chars-per-pixel */
"16 16 129 2",
"   c #793B3B",
".  c #676767",
"X  c gray38",
"o  c gray53",
"O  c #B6B6B6",
"+  c #5A5A5A",
"@  c #434343",
"#  c #101010",
"$  c #534444",
"%  c gray8",
"&  c gray24",
"*  c #494949",
"=  c #A0A0A0",
"-  c #727272",
";  c #090909",
":  c #4F3A3A",
">  c #A7A7A7",
",  c gainsboro",
"<  c gray64",
"1  c #D2D2D2",
"2  c gray44",
"3  c gray48",
"4  c gray89",
"5  c #AAAAAA",
"6  c #4E4E4E",
"7  c #747474",
"8  c #585858",
"9  c #9B8787",
"0  c #E2E2E2",
"q  c #9F9F9F",
"w  c gray23",
"e  c #9B9B9B",
"r  c gray83",
"t  c #7E7E7E",
"y  c #555555",
"u  c #947575",
"i  c gray6",
"p  c #808080",
"a  c #CBCBCB",
"s  c #5D5D5D",
"d  c gray71",
"f  c gray47",
"g  c #0E0E0E",
"h  c #BBBBBB",
"j  c #1D1D1D",
"k  c #444444",
"l  c #181818",
"z  c #717171",
"x  c #BCBCBC",
"c  c gray55",
"v  c gray27",
"b  c gray57",
"n  c #966D6D",
"m  c #5E3F3F",
"M  c #3A3A3A",
"N  c #353535",
"B  c #7B7B7B",
"V  c #313131",
"C  c #686868",
"Z  c #936565",
"A  c #131313",
"S  c #515151",
"D  c #646464",
"F  c gray22",
"G  c gray17",
"H  c black",
"J  c #867171",
"K  c #C1C1C1",
"L  c gray75",
"P  c #939393",
"I  c #888888",
"U  c #8E8E8E",
"Y  c LightGray",
"T  c gray94",
"R  c gray84",
"E  c #979797",
"W  c #845B5B",
"Q  c #1B1B1B",
"!  c #775858",
"~  c gray34",
"^  c #683A3A",
"/  c #887373",
"(  c gray100",
")  c gray100",
"_  c gray100",
"`  c gray100",
"'  c gray100",
"]  c gray100",
"[  c gray100",
"{  c gray100",
"}  c gray100",
"|  c gray100",
" . c gray100",
".. c gray100",
"X. c gray100",
"o. c gray100",
"O. c gray100",
"+. c gray100",
"@. c gray100",
"#. c gray100",
"$. c gray100",
"%. c gray100",
"&. c gray100",
"*. c gray100",
"=. c gray100",
"-. c gray100",
";. c gray100",
":. c gray100",
">. c gray100",
",. c gray100",
"<. c gray100",
"1. c gray100",
"2. c gray100",
"3. c gray100",
"4. c gray100",
"5. c gray100",
"6. c gray100",
"7. c gray100",
"8. c gray100",
"9. c gray100",
"0. c gray100",
"q. c gray100",
"w. c gray100",
"e. c gray100",
"r. c gray100",
"t. c gray100",
"y. c gray100",
"u. c gray100",
"i. c None",
/* pixels */
"i.  . X i.i.i.i.i.i.i.i.X X o O ",
"i.+ @ # $ i.i.i.i.i.i.$ % & * = ",
"i.* - = ; : i.i.i.i.: ; > o * = ",
"i.* X , < ; $ i.i.$ ; < 1 2 * = ",
"i.$ ; 3 4 5 % 6 6 % > 1 7 ; 8 9 ",
"i.i.: ; o 0 q w % e r t ; y u i.",
"i.i.i.$ i p 0 a s d f g 8 u i.i.",
"i.i.i.i.6 i o 6 h j g 6 9 i.i.i.",
"i.i.i.i.i.k l z x c v b = n i.i.",
"i.i.m * M j * N l B V M * C Z i.",
"i.m A S D F G o M H F D S A C n ",
"J g S K L B * i.P M B L K S g c ",
"I H U Y T 7 6 i.i.6 S K R E H I ",
"W j & U 7 Q ! i.i.! Q S E ~ j W ",
"i.^ j H % ! i.i.i.i.! % H j ^ i.",
"i.i.W I / i.i.i.i.i.i./ I W i.i."
};
