/* XPM */
static char *DatePicker_xpm[] = {
/* columns rows colors chars-per-pixel */
"13 14 256 2",
"   c black",
".  c #001950",
"X  c #003196",
"o  c #003250",
"O  c #003DB9",
"+  c #0049DC",
"@  c #004A73",
"#  c #005000",
"$  c #005019",
"%  c #005050",
"&  c #006296",
"*  c #007325",
"=  c #007373",
"-  c #007AB9",
";  c #0092DC",
":  c #009631",
">  c #009696",
",  c #00AAFF",
"<  c #00AB3D",
"1  c #00B900",
"2  c #00B9B9",
"3  c #00DC49",
"4  c #00DCDC",
"5  c #00FEFE",
"6  c #00FF55",
"7  c #0E0E0E",
"8  c #195000",
"9  c gray10",
"0  c #250073",
"q  c #257300",
"w  c #25AAFF",
"e  c #25FF57",
"r  c #25FFFF",
"t  c gray15",
"y  c #310096",
"u  c #319600",
"i  c #323200",
"p  c #323232",
"a  c #325000",
"s  c #3DB900",
"d  c #3E3E3E",
"f  c #4873FF",
"g  c #48B8FF",
"h  c #49DC00",
"j  c #4A0073",
"k  c #4A4A00",
"l  c gray29",
"z  c #4A7300",
"x  c #500000",
"c  c #500019",
"v  c #501900",
"b  c #503200",
"n  c #505000",
"m  c #565656",
"M  c #620096",
"N  c #626200",
"B  c #626262",
"V  c #629600",
"C  c #6BC6FF",
"Z  c gray43",
"A  c #730025",
"S  c #734A00",
"D  c #737300",
"F  c gray48",
"G  c #7AB900",
"H  c #808080",
"J  c #868686",
"K  c #8ED4FF",
"L  c #8EFFFF",
"P  c #8F6BFF",
"I  c #9200DC",
"U  c #929292",
"Y  c #937A00",
"T  c #960000",
"R  c #960031",
"E  c #966200",
"W  c #969600",
"Q  c gray62",
"!  c #A0A0A4",
"~  c #AA25FF",
"^  c #AAAAAA",
"/  c #AF9200",
"(  c #B1C7FF",
")  c #B1E2FF",
"_  c #B1FFFF",
"`  c #B6B6B6",
"'  c #B90000",
"]  c #B9003D",
"[  c #B97A00",
"{  c #B9B900",
"}  c #BDAA25",
"|  c #C0C0C0",
" . c gray76",
".. c #C3B848",
"X. c #C5AA00",
"o. c #CECECE",
"O. c #D1C96B",
"+. c #D4FFFF",
"@. c #DADADA",
"#. c #DC0049",
"$. c #DC9200",
"%. c #DCDC00",
"&. c #DFD48E",
"*. c #E6E6E6",
"=. c gray95",
"-. c #F8E2B1",
";. c #FEFE00",
":. c #FF0055",
">. c #FF6B6B",
",. c #FF6B8F",
"<. c #FF8E8E",
"1. c #FF8EAB",
"2. c #FF8F6B",
"3. c #FFAA00",
"4. c #FFAA25",
"5. c #FFAB8E",
"6. c #FFB1B1",
"7. c #FFB1C7",
"8. c #FFB848",
"9. c #FFC66B",
"0. c #FFC7B1",
"q. c #FFD48E",
"w. c #FFD4D4",
"e. c #FFD4E3",
"r. c #FFE2B1",
"t. c #FFF0D4",
"y. c #FFFBF0",
"u. c yellow",
"i. c #FFFF25",
"p. c #FFFF8E",
"a. c #FFFFB1",
"s. c #FFFFD4",
"d. c gray100",
"f. c #6B09FE",
"g. c #190000",
"h. c #900000",
"j. c #00000C",
"k. c #001B00",
"l. c #0050FF",
"z. c #4E400D",
"x. c #000017",
"c. c #0000A4",
"v. c #170017",
"b. c #A800A4",
"n. c #680080",
"m. c #004100",
"M. c #18B801",
"N. c #000500",
"B. c #1AC000",
"V. c #4E0200",
"C. c #644D20",
"Z. c #00C000",
"A. c #000200",
"S. c #054D00",
"D. c red",
"F. c #0023CD",
"G. c #EF00EF",
"H. c #FF0079",
"J. c #E500D5",
"K. c #5020AC",
"L. c #0000EF",
"P. c #040079",
"I. c #FE00C5",
"U. c #8000B8",
"Y. c #00EF00",
"T. c green",
"R. c #00E400",
"E. c #00180D",
"W. c #000005",
"Q. c #0003C0",
"!. c #000B00",
"~. c #00C872",
"^. c #1B00C0",
"/. c #410000",
"(. c #B80072",
"). c #050000",
"_. c #C00000",
"`. c #860000",
"'. c #EF0000",
"]. c #E50000",
"[. c #E40000",
"{. c #E00000",
"}. c magenta",
"|. c #E500E3",
" X c #DC0040",
".X c #FF0002",
"XX c #E500B2",
"oX c #D80044",
"OX c #580BF3",
"+X c #040000",
"@X c #830000",
"#X c #3820EC",
"$X c #000019",
"%X c #000090",
"&X c #650900",
"*X c #EFEF00",
"=X c #E5E400",
"-X c #D08C02",
";X c #CC0000",
":X c #C800EC",
">X c #0000E2",
",X c #0000D5",
"<X c #0000C6",
"1X c #170000",
"2X c #970000",
"3X c #880000",
"4X c #0000C0",
"5X c #000073",
"6X c #020000",
"7X c #AC0000",
"8X c #0100FF",
"9X c #9C000D",
"0X c #015233",
"qX c black",
"wX c black",
"eX c black",
"rX c black",
"tX c black",
"yX c black",
"uX c black",
"iX c black",
"pX c black",
"aX c black",
"sX c black",
"dX c black",
"fX c black",
"gX c black",
"hX c black",
"jX c black",
"kX c black",
"lX c black",
"zX c black",
"xX c black",
"cX c black",
"vX c black",
"bX c black",
"nX c black",
"mX c black",
"MX c black",
"NX c black",
"BX c black",
"VX c black",
"CX c black",
"ZX c black",
"AX c black",
"SX c black",
"DX c black",
"FX c black",
"GX c black",
"HX c black",
"JX c black",
"KX c black",
"LX c black",
"PX c black",
"IX c black",
"UX c black",
/* pixels */
"d.d.d.d.d.d.d.d.d.d.d.d.d.",
"d.                      d.",
"d.  d.K K K K K K g w   d.",
"d.  g g w w w & & & &   d.",
"d.                      d.",
"d.  _ r Z _ r Z r U _   d.",
"d.  o.o.U o.o.U o.U o.  d.",
"d.  _ r Z _ r Z r Z _   d.",
"d.  o.o.U o.o.U o.U o.  d.",
"d.  _ r Z _ r Z r Z _   d.",
"d.  U U U U o.U o.U o.  d.",
"d.  o.2 Z r 2 Z 2 Z r   d.",
"d.                      d.",
"d.d.d.d.d.d.d.d.d.d.d.d.d."
};
