/* XPM */
static char *DeleteDocument_xpm[] = {
/* columns rows colors chars-per-pixel */
"16 16 129 2",
"   c #2C2829",
".  c #220910",
"X  c #322629",
"o  c #535353",
"O  c #515151",
"+  c gray29",
"@  c #322125",
"#  c #1D040C",
"$  c #373737",
"%  c #4E4E4E",
"&  c gray58",
"*  c #1D0009",
"=  c #B61A4A",
"-  c #9E3350",
";  c #1B1B1B",
":  c #3F272D",
">  c #B9385C",
",  c #A30D3C",
"<  c black",
"1  c gray13",
"2  c #3E3E3E",
"3  c #393939",
"4  c #979797",
"5  c #2D1E23",
"6  c #7C0029",
"7  c #DC1A57",
"8  c #A93C59",
"9  c #D51150",
"0  c #630021",
"q  c #1E1E1E",
"w  c gray37",
"e  c #C6C6C6",
"r  c #5D5D5D",
"t  c #3A3A3A",
"y  c #929292",
"u  c #82002B",
"i  c #DC1152",
"p  c #D1496D",
"a  c #D50D4E",
"s  c #2F282A",
"d  c #8E8E8E",
"f  c gray40",
"g  c #F9F9F9",
"h  c #C8C8C8",
"j  c gray32",
"k  c #343434",
"l  c #D61150",
"z  c #B7B7B7",
"x  c #A5A5A5",
"c  c gray80",
"v  c #848484",
"b  c #272727",
"n  c #CA0D4A",
"m  c #6E0024",
"M  c #D41A54",
"N  c gray53",
"B  c gray26",
"V  c #C8114C",
"C  c #54001B",
"Z  c #2A1E22",
"A  c #6B0023",
"S  c #3A4343",
"D  c #BDEBEB",
"F  c #97BCBC",
"G  c #970D38",
"H  c #2E282A",
"J  c #B78585",
"K  c #931139",
"L  c #303333",
"P  c #EFFFFF",
"I  c #E3F3F3",
"U  c #DBEBEB",
"Y  c #B0BCBC",
"T  c #323232",
"R  c #090909",
"E  c gray3",
"W  c #8EC0C0",
"Q  c #F1BFBF",
"!  c #93B8B8",
"~  c #414141",
"^  c #778383",
"/  c #C1FFFF",
"(  c #BDFBFB",
")  c #96C8C8",
"_  c #90A9A9",
"`  c #F3BBBB",
"'  c #C5E4E4",
"]  c #CEEDED",
"[  c #DDFCFC",
"{  c LightCyan",
"}  c #D4F3F3",
"|  c #A7C0C0",
" . c #D1F0F0",
".. c #B8F6F6",
"X. c #BBF9F9",
"o. c #BCFAFA",
"O. c #919D9D",
"+. c #F4B9B9",
"@. c #C8D8D8",
"#. c #CEDEDE",
"$. c #D9E9E9",
"%. c #E7F7F7",
"&. c #C0CCCC",
"*. c #8FB5B5",
"=. c #F2BDBD",
"-. c #BFEEEE",
";. c #C1F0F0",
":. c #C3F2F2",
">. c #C6F5F5",
",. c #9FC4C4",
"<. c #624949",
"1. c #555555",
"2. c gray34",
"3. c gray35",
"4. c gray36",
"5. c #717171",
"6. c #A9A9A9",
"7. c gray100",
"8. c gray100",
"9. c gray100",
"0. c gray100",
"q. c gray100",
"w. c gray100",
"e. c gray100",
"r. c gray100",
"t. c gray100",
"y. c gray100",
"u. c gray100",
"i. c None",
/* pixels */
"  . X o O + @ # $ % % & i.i.i.i.",
"* = - X ; : > , < 1 2 3 4 i.i.i.",
"5 6 7 8 @ > 9 0 q w e r t y i.i.",
"i.5 u i p a 0 s d f g h j t 4 i.",
"i.k @ p l 8 X z x j c c v b & i.",
"k : > n m M - X N j j j B b & i.",
"@ > V C Z A M 8 S D D D F b & i.",
"# G C H J Z m K L P I U Y b & i.",
"T R E W Q ! ~ T ^ / / ( ) b & i.",
"i.i.b _ ` ' ] [ { { { } | b & i.",
"i.i.b _ ` ' ]  .{ { { { | b & i.",
"i.i.b W Q ..X.o./ / / / ) b & i.",
"i.i.b O.+.@.#.$.U U %.P &.b & i.",
"i.i.b *.=.D -.;.;.:.>.>.,.b & i.",
"i.i.b t <.j 1.2.2.3.4.4.+ b & i.",
"i.i.5.% % % % % % % % % % 5.6.i."
};
