/* XPM */
static char *DeleteFolder_xpm[] = {
/* columns rows colors chars-per-pixel */
"16 16 129 2",
"   c #3E4C55",
".  c #1C040B",
"X  c #322025",
"o  c #741B38",
"O  c #322629",
"+  c #22080F",
"@  c #2C2729",
"#  c #0A1318",
"$  c #A20C3C",
"%  c #B9375B",
"&  c #3F272D",
"*  c #818E95",
"=  c #9D3350",
"-  c #B61949",
";  c #1C0009",
":  c #A3C7A3",
">  c #8B8B8B",
",  c gray29",
"<  c #2C2C2C",
"1  c gray35",
"2  c #353535",
"3  c #630020",
"4  c #D5114F",
"5  c #A93B58",
"6  c #DC1956",
"7  c #7C0028",
"8  c #2C1D22",
"9  c gray66",
"0  c gray30",
"q  c #6D693C",
"w  c #C4B998",
"e  c #CCC0A9",
"r  c #5E5A51",
"t  c gray33",
"y  c #2F272A",
"u  c #D50C4D",
"i  c #D0486C",
"p  c #DC1152",
"a  c #82002A",
"s  c #888888",
"d  c #A7A7A7",
"f  c gray26",
"g  c #99907F",
"h  c #CFC364",
"j  c #C3B848",
"k  c #B9A525",
"l  c #433C0E",
"z  c #090909",
"x  c #14080B",
"c  c #D61150",
"v  c #1E0C11",
"b  c black",
"n  c #585858",
"m  c #E2D590",
"M  c #DBCE80",
"N  c #9D9550",
"B  c #D31954",
"V  c #6E0024",
"C  c #C90C49",
"Z  c #281116",
"A  c #484848",
"S  c #E8DDA1",
"D  c #E3D895",
"F  c #413F31",
"G  c #6B0023",
"H  c #291D21",
"J  c #53001B",
"K  c #C8114B",
"L  c #DAD080",
"P  c #D1C96B",
"I  c #292815",
"U  c #931139",
"Y  c #999458",
"T  c #2D2729",
"R  c #970C38",
"E  c #72704E",
"W  c #3D3C29",
"Q  c #A19C5C",
"!  c #B9B263",
"~  c #44412A",
"^  c #0E0B00",
"/  c #393939",
"(  c #C3B340",
")  c #463A00",
"_  c #544600",
"`  c #8C7400",
"'  c #382E00",
"]  c #868686",
"[  c #646464",
"{  c #777777",
"}  c gray50",
"|  c gray60",
" . c #767676",
".. c gray100",
"X. c gray100",
"o. c gray100",
"O. c gray100",
"+. c gray100",
"@. c gray100",
"#. c gray100",
"$. c gray100",
"%. c gray100",
"&. c gray100",
"*. c gray100",
"=. c gray100",
"-. c gray100",
";. c gray100",
":. c gray100",
">. c gray100",
",. c gray100",
"<. c gray100",
"1. c gray100",
"2. c gray100",
"3. c gray100",
"4. c gray100",
"5. c gray100",
"6. c gray100",
"7. c gray100",
"8. c gray100",
"9. c gray100",
"0. c gray100",
"q. c gray100",
"w. c gray100",
"e. c gray100",
"r. c gray100",
"t. c gray100",
"y. c gray100",
"u. c gray100",
"i. c None",
/* pixels */
"i.i.i.i.i.i.i.  . X o i.i.O + @ ",
"i.i.i.i.i.i.i.# $ % & * O = - ; ",
": > , < < < 1 2 3 4 % X 5 6 7 8 ",
"9 0 q w e e r t y 3 u i p a 8 s ",
"d f g h j j k l z x 5 c i v b n ",
"d f g m M M M N O = B V C % Z A ",
"d f g S D D D F 5 B G H J K % X ",
"d f g L P P P I U V H Y T J R . ",
"d f g L P P P E I W Q P ! ~ ^ / ",
"d f g L P P P P P P P P P ( ) n ",
"d f g L P P P P P P P P P ( ) n ",
"d f g L P P P P P P P P P ( ) n ",
"d f _ ` ` ` ` ` ` ` ` ` ` ` ' n ",
"] [ < < < < < < < < < < < < < { ",
"i.} | | | | | | | | | | | | |  .",
"i.i.i.i.i.i.i.i.i.i.i.i.i.i.i.i."
};
