/* XPM */
static char *DeleteBCard_xpm[] = {
/* columns rows colors chars-per-pixel */
"16 16 129 2",
"   c #22080F",
".  c #322629",
"X  c #646464",
"o  c #322025",
"O  c #1C040B",
"+  c #1C0009",
"@  c #B61949",
"#  c #9D3350",
"$  c #3F272D",
"%  c #B9375B",
"&  c #A20C3C",
"*  c #1E1E1E",
"=  c #2C1D22",
"-  c #7C0028",
";  c #DC1956",
":  c #A93B58",
">  c #D5114F",
",  c #630020",
"<  c #3C3C3C",
"1  c #808080",
"2  c #7C052C",
"3  c #D31753",
"4  c #CF496D",
"5  c #CC134F",
"6  c #5F0321",
"7  c #2F272A",
"8  c gray37",
"9  c #6C6C6C",
"0  c #9A9A9A",
"q  c #505050",
"w  c #1B1B1B",
"e  c #D04A6F",
"r  c #CB1552",
"t  c #A83D5A",
"y  c #131313",
"u  c gray20",
"i  c #2D2D2D",
"p  c #2F2F2F",
"a  c gray7",
"s  c #4E4E4E",
"d  c gray29",
"f  c #B73A5B",
"g  c #CB1E56",
"h  c #710E37",
"j  c #D32462",
"k  c #9C3451",
"l  c #AEAEAE",
"z  c #9F9F9F",
"x  c #D5D5D5",
"c  c #F4F4F4",
"v  c #E2E2E2",
"b  c #D7D7D7",
"n  c #B83A5F",
"m  c #C41D4F",
"M  c #560E21",
"N  c #2A1F24",
"B  c #6B0B31",
"V  c #D32660",
"C  c #A93E5A",
"Z  c #323232",
"A  c #989898",
"S  c #C8C8C8",
"D  c gray89",
"F  c gray83",
"G  c gray72",
"H  c #19040A",
"J  c #8F153F",
"K  c #540A26",
"L  c #2D2829",
"P  c #3E3C27",
"I  c #291F23",
"U  c #761737",
"Y  c #891A3C",
"T  c #0C0C0C",
"R  c #3E3E3E",
"E  c #3A3A3A",
"W  c #555555",
"Q  c #31312E",
"!  c #B5B4AD",
"~  c #B5B5AF",
"^  c #747377",
"/  c #3A383D",
"(  c gray31",
")  c gray66",
"_  c gray68",
"`  c #B1B1B1",
"'  c #575656",
"]  c #373232",
"[  c #615D45",
"{  c #827A42",
"}  c #83794A",
"|  c #716486",
" . c #BDB5CC",
".. c #818181",
"X. c gray39",
"o. c gray36",
"O. c gray34",
"+. c #514E4E",
"@. c #37293C",
"#. c #695B4D",
"$. c #6A5C13",
"%. c #88722C",
"&. c #68538B",
"*. c #B7B0C3",
"=. c #797979",
"-. c #585858",
";. c gray32",
":. c #302640",
">. c #554952",
",. c #393513",
"<. c #524926",
"1. c #5C497B",
"2. c #ADA5B9",
"3. c #A4A4A4",
"4. c #939393",
"5. c gray50",
"6. c #1C1626",
"7. c #47385F",
"8. c #655F6F",
"9. c gray19",
"0. c #6D6D6D",
"q. c #272727",
"w. c gray100",
"e. c gray100",
"r. c gray100",
"t. c gray100",
"y. c gray100",
"u. c gray100",
"i. c None",
/* pixels */
"i.  . i.i.X o O i.i.i.i.i.i.i.i.",
"+ @ # . X $ % & * i.i.i.i.i.i.i.",
"= - ; : o % > , < i.i.i.i.i.i.i.",
"1 = 2 3 4 5 6 7 8 9 9 9 9 9 9 0 ",
"q w o e r t . y u u u u i p a s ",
"d $ f g h j k . l z x c v b s s ",
"o n m M N B V C Z A S D F G < s ",
"H J K L P I U Y T R < E W G < s ",
"q T Q ! ~ ^ / T ( G l ) _ ` < s ",
"' ] [ { } |  ...X.o.o.o.O.A < s ",
"+.@.#.$.%.&.*.=.-.;.;.;.( A < s ",
"s :.>.,.<.1.2.` 3.4.=.=.5.A < s ",
"s 6.7.7.7.7.8.=.=.=.=.=.=.=.9.s ",
"0.q.q.q.q.q.q.q.q.q.q.q.q.q.q.0.",
"i.i.i.i.i.i.i.i.i.i.i.i.i.i.i.i.",
"i.i.i.i.i.i.i.i.i.i.i.i.i.i.i.i."
};
