/* XPM */
static char *DeleteEnvelope_xpm[] = {
/* columns rows colors chars-per-pixel */
"16 16 129 2",
"   c #261D20",
".  c #44111F",
"X  c #3F272D",
"o  c #1B1B1B",
"O  c #1D1E1D",
"+  c #4C2831",
"@  c #390817",
"#  c #1D1D1D",
"$  c #1F000A",
"%  c #BB1147",
"&  c #B9375B",
"*  c #322025",
"=  c #222322",
"-  c #C9335E",
";  c #AC083D",
":  c #0B0B0B",
">  c #3A3B3A",
",  c #5D5D5D",
"<  c #463E41",
"1  c #630020",
"2  c #D50C4D",
"3  c #D0486C",
"4  c #321B20",
"5  c #D53B67",
"6  c #CE0848",
"7  c #440016",
"8  c gray1",
"9  c #131313",
"0  c #4E4E4E",
"q  c #040400",
"w  c #5C041D",
"e  c #D3114F",
"r  c #F34878",
"t  c #C30C47",
"y  c #42071A",
"u  c #514E46",
"i  c #F8E2B1",
"p  c #F6E0AE",
"a  c #F3DFAA",
"s  c #E3D693",
"d  c #D9CF80",
"f  c #BEB553",
"g  c #423E17",
"h  c #0C0C00",
"j  c #492522",
"k  c #C90C49",
"l  c #928770",
"z  c #EEDCA3",
"x  c #E8D99A",
"c  c #DFD48E",
"v  c #DAD082",
"b  c #756D19",
"n  c #231F00",
"m  c #3D1922",
"M  c #BD0843",
"N  c #53001B",
"B  c #C8114B",
"V  c #918C67",
"C  c #D9D081",
"Z  c #CBC15D",
"A  c #6C6517",
"S  c #857408",
"D  c #443C08",
"F  c #382026",
"G  c #380012",
"H  c #2D2729",
"J  c #363426",
"K  c #66621B",
"L  c #8A7605",
"P  c #B9A82B",
"I  c #4D481A",
"U  c #1C090F",
"Y  c #670021",
"T  c #370717",
"R  c #4B4A3B",
"E  c #8A770F",
"W  c #2E2E22",
"Q  c #4C041C",
"!  c #61001F",
"~  c #33311D",
"^  c #666217",
"/  c #887505",
"(  c #C1B137",
")  c #C4B94A",
"_  c #4F4A1F",
"`  c gray24",
"'  c #212011",
"]  c #696641",
"[  c #BFB865",
"{  c #958A34",
"}  c #655F0E",
"|  c #36360E",
" . c #362E00",
".. c #6C6226",
"X. c #797519",
"o. c #625C00",
"O. c #CFC666",
"+. c #CBC25E",
"@. c #53502A",
"#. c #D1C96B",
"$. c #A19D6C",
"%. c #8A7923",
"&. c #9B8400",
"*. c #867600",
"=. c #776C00",
"-. c #897927",
";. c #AC9205",
":. c #BCA928",
">. c #BBAD39",
",. c #AD9E23",
"<. c #232323",
"1. c #695D23",
"2. c #877000",
"3. c #988A23",
"4. c #9C9339",
"5. c #6D6D6D",
"6. c #272727",
"7. c gray100",
"8. c gray100",
"9. c gray100",
"0. c gray100",
"q. c gray100",
"w. c gray100",
"e. c gray100",
"r. c gray100",
"t. c gray100",
"y. c gray100",
"u. c gray100",
"i. c None",
/* pixels */
"i.i.i.i.i.i.i.i.i.i.i.i.i.i.i.i.",
"  . X o i.O + @ # i.i.i.i.i.i.i.",
"$ % & * = + - ; : > > > > > > , ",
"< 1 2 3 4 5 6 7 8 9 9 9 9 9 9 , ",
"0 q w e r t y u i p a s d f g 0 ",
"0 h j 5 k & X l z x c v f b n 0 ",
"0 m - M N B & * V c C Z A S D 0 ",
"F 5 M G H N k 3 J v Z K L P I 0 ",
"U Y T R E W Q ! ~ f ^ / ( ) _ 0 ",
"` ' ] [ { } |  ...X.o.{ O.+.@.0 ",
"0 @.#.$.%.&.*.=.=.*.&.%.$.#.@.0 ",
"0 @.$.-.;.:.>.,.,.>.:.;.-.$.@.0 ",
"0 <.1.2.3.4.4.4.4.4.4.3.2.1.<.0 ",
"5.6.6.6.6.6.6.6.6.6.6.6.6.6.6.5.",
"i.i.i.i.i.i.i.i.i.i.i.i.i.i.i.i.",
"i.i.i.i.i.i.i.i.i.i.i.i.i.i.i.i."
};
