/* XPM */
static char *DocumentDraw_xpm[] = {
/* columns rows colors chars-per-pixel */
"16 16 257 2",
"   c #717171",
".  c #4E4E4E",
"X  c gray58",
"o  c #272727",
"O  c #395252",
"+  c #604D4D",
"@  c #476666",
"#  c gray26",
"$  c gray13",
"%  c #3E3E3E",
"&  c #393939",
"*  c #979797",
"=  c #90A9A9",
"-  c #F3BBBB",
";  c #C8E7E7",
":  c #D1F0F0",
">  c #A5A5A5",
",  c gray37",
"<  c #C6C6C6",
"1  c #5D5D5D",
"2  c gray22",
"3  c #777777",
"4  c #909090",
"5  c #8EC0C0",
"6  c #F1BFBF",
"7  c #B9F7F7",
"8  c #BCFAFA",
"9  c gray40",
"0  c #F9F9F9",
"q  c #C8C8C8",
"w  c gray17",
"e  c gray6",
"r  c #9F9F9F",
"t  c #919D9D",
"y  c #F4B9B9",
"u  c #D0DFDF",
"i  c #DBEBEB",
"p  c #EBFBFB",
"a  c gray32",
"s  c LightGray",
"d  c #535353",
"f  c #332929",
"g  c #FFC2C2",
"h  c #855454",
"j  c #322C2C",
"k  c #8FB5B5",
"l  c #F2BDBD",
"z  c #C0EFEF",
"x  c #C6F5F5",
"c  c #CEFDFD",
"v  c #C5C5C5",
"b  c gray23",
"n  c #202020",
"m  c #593E07",
"M  c #322929",
"N  c #C28787",
"B  c #E66D6D",
"V  c #2B0D0D",
"C  c #BEE4E4",
"Z  c #66470A",
"A  c #EBC566",
"S  c #95951B",
"D  c #3F3333",
"F  c #4D1C1C",
"G  c #2A1E1E",
"H  c #465353",
"J  c #FEFB44",
"K  c #F7BC36",
"L  c #825919",
"P  c #1E1E1E",
"I  c #888888",
"U  c #B8F6F6",
"Y  c #A6E5E5",
"T  c #5C4108",
"R  c #FFD65D",
"E  c #FEF64C",
"W  c #FFC137",
"Q  c #A66F1A",
"!  c #232323",
"~  c #898989",
"^  c #B3C6C6",
"/  c #555555",
"(  c #070707",
")  c #C1982D",
"_  c #FFF358",
"`  c #FFC52E",
"'  c #AD751D",
"]  c #1B1B1B",
"[  c #E2A9A9",
"{  c #5E695D",
"}  c #79674A",
"|  c #998E7B",
" . c #30301B",
".. c #B99A2B",
"X. c #A36F1D",
"o. c #322B21",
"O. c gray51",
"+. c #E4A6A6",
"@. c #736348",
"#. c #C4AA7B",
"$. c #FFE6BC",
"%. c #A68A5D",
"&. c #1C150A",
"*. c #85B7B7",
"=. c #96C8C8",
"-. c #E2A3A3",
";. c #655841",
":. c #AD8D55",
">. c #E3BB77",
",. c #B28947",
"<. c #293030",
"1. c #B2C1C1",
"2. c #EFFFFF",
"3. c #C0CCCC",
"4. c #DD9E9E",
"5. c #53452A",
"6. c #796034",
"7. c #53452D",
"8. c #9AADAD",
"9. c #9FC4C4",
"0. c #3A3A3A",
"q. c #573E3E",
"w. c gray12",
"e. c #2A2A2A",
"r. c #343434",
"t. c #252525",
"y. c gray35",
"u. c gray36",
"i. c gray29",
"p. c #A9A9A9",
"a. c gray100",
"s. c gray100",
"d. c gray100",
"f. c gray100",
"g. c gray100",
"h. c gray100",
"j. c gray100",
"k. c gray100",
"l. c gray100",
"z. c gray100",
"x. c gray100",
"c. c gray100",
"v. c gray100",
"b. c gray100",
"n. c gray100",
"m. c gray100",
"M. c gray100",
"N. c gray100",
"B. c gray100",
"V. c gray100",
"C. c gray100",
"Z. c gray100",
"A. c gray100",
"S. c gray100",
"D. c gray100",
"F. c gray100",
"G. c gray100",
"H. c gray100",
"J. c gray100",
"K. c gray100",
"L. c gray100",
"P. c gray100",
"I. c gray100",
"U. c gray100",
"Y. c gray100",
"T. c gray100",
"R. c gray100",
"E. c gray100",
"W. c gray100",
"Q. c gray100",
"!. c gray100",
"~. c gray100",
"^. c gray100",
"/. c gray100",
"(. c gray100",
"). c gray100",
"_. c gray100",
"`. c gray100",
"'. c gray100",
"]. c gray100",
"[. c gray100",
"{. c gray100",
"}. c gray100",
"|. c gray100",
" X c gray100",
".X c gray100",
"XX c gray100",
"oX c gray100",
"OX c gray100",
"+X c gray100",
"@X c gray100",
"#X c gray100",
"$X c gray100",
"%X c gray100",
"&X c gray100",
"*X c gray100",
"=X c gray100",
"-X c gray100",
";X c gray100",
":X c gray100",
">X c gray100",
",X c gray100",
"<X c gray100",
"1X c gray100",
"2X c gray100",
"3X c gray100",
"4X c gray100",
"5X c gray100",
"6X c gray100",
"7X c gray100",
"8X c gray100",
"9X c gray100",
"0X c gray100",
"qX c gray100",
"wX c gray100",
"eX c gray100",
"rX c gray100",
"tX c gray100",
"yX c gray100",
"uX c gray100",
"iX c gray100",
"pX c gray100",
"aX c gray100",
"sX c gray100",
"dX c gray100",
"fX c gray100",
"gX c gray100",
"hX c gray100",
"jX c gray100",
"kX c gray100",
"lX c gray100",
"zX c gray100",
"xX c gray100",
"cX c gray100",
"vX c gray100",
"bX c gray100",
"nX c gray100",
"mX c gray100",
"MX c gray100",
"NX c gray100",
"BX c gray100",
"VX c gray100",
"CX c gray100",
"ZX c gray100",
"AX c gray100",
"SX c gray100",
"DX c gray100",
"FX c gray100",
"GX c gray100",
"HX c gray100",
"JX c gray100",
"KX c gray100",
"LX c gray100",
"PX c gray100",
"IX c gray100",
"UX c gray100",
"YX c None",
/* pixels */
"YXYX  . . . . . . . . X YXYXYXYX",
"YXYXo O + @ @ @ # $ % & * YXYXYX",
"YXYXo = - ; : : > , < 1 2 3 4 YX",
"YXYXo 5 6 7 8 8 > 9 0 q w e & r ",
"YXYXo t y u i p > a s d f g h j ",
"YXYXo k l z x c v b n m M N B V ",
"YXYXo k l z x c C a Z A S D F G ",
"YXYXo t y u i p H m A J K L P I ",
"YXYXo 5 6 U Y H T R E W Q ! ~ YX",
"YXYXo = - ^ / ( ) _ ` ' ] % X YX",
"YXYXo = [ { } |  ...X.o.O.o X YX",
"YXYXo 5 +.@.#.$.%.&.o.*.=.o X YX",
"YXYXo t -.;.:.>.,.<.1.2.3.o X YX",
"YXYXo k 4.# 5.6.7.8.x x 9.o X YX",
"YXYXo 0.q.w.e.r.t.y.u.u.i.o X YX",
"YXYX  . . . . . . . . . .   p.YX"
};
