/* XPM */
static char *EditBCard_xpm[] = {
/* columns rows colors chars-per-pixel */
"16 16 129 2",
"   c gray47",
".  c #2D2D2D",
"X  c #5F5F5F",
"o  c #AFAFAF",
"O  c #322D2D",
"+  c #997676",
"@  c #4C3939",
"#  c gray36",
"$  c #A2A2A2",
"%  c #747474",
"&  c #626262",
"*  c #1B1B1B",
"=  c #332424",
"-  c #FFB5B5",
";  c #E07A7A",
":  c #321B1B",
">  c #4E4E4E",
",  c #0F0C14",
"<  c #261E33",
"1  c #2D2A33",
"2  c gray20",
"3  c gray17",
"4  c #322813",
"5  c #D69C21",
"6  c #52522A",
"7  c #594040",
"8  c #993838",
"9  c #210909",
"0  c #4C3C66",
"q  c #B192D2",
"w  c #C7ADD7",
"e  c #B99AC1",
"r  c #B692F5",
"t  c #DDD0F5",
"y  c #B2B2B2",
"u  c #959595",
"i  c #3F3116",
"p  c #C19532",
"a  c #FEF476",
"s  c #E7C921",
"d  c #533F1F",
"f  c #0E0E0E",
"g  c #9D888D",
"h  c #C6BB6F",
"j  c #A9944F",
"k  c #9C7DD2",
"l  c #D3C7E7",
"z  c #565656",
"x  c #FEF165",
"c  c #FEDC33",
"v  c #E09A2B",
"b  c #4C3717",
"n  c #1D1D1D",
"m  c gray43",
"M  c #4F4E4E",
"N  c #503C66",
"B  c #766583",
"V  c #6E672C",
"C  c #625840",
"Z  c #9275C4",
"A  c #766B8A",
"S  c #1E1E1E",
"D  c #FEB12E",
"F  c #32250F",
"G  c #535353",
"H  c #353535",
"J  c #534F4F",
"K  c #362929",
"L  c #9C9C99",
"P  c #CDCCC5",
"I  c #B3B2AD",
"U  c #6A6864",
"Y  c #383229",
"T  c #332F29",
"R  c #515151",
"E  c #B1B1B1",
"W  c #3C3C3C",
"Q  c #332626",
"!  c #6A664E",
"~  c #827A42",
"^  c #7D7542",
"/  c #5C4E36",
"(  c #BEA272",
")  c #FFE9C4",
"_  c #594B34",
"`  c #646464",
"'  c gray34",
"]  c #989898",
"[  c #514E4E",
"{  c #37293C",
"}  c #695B4D",
"|  c #6A5C13",
" . c #8A7825",
".. c #756547",
"X. c #C7A872",
"o. c #FFDCA3",
"O. c #CCA260",
"+. c #464646",
"@. c gray31",
"#. c #302640",
"$. c #554952",
"%. c #393513",
"&. c #534E21",
"*. c #45423C",
"=. c #5F4415",
"-. c #8F661D",
";. c #65491B",
":. c #7E7E7E",
">. c #797979",
",. c gray50",
"<. c #1C1626",
"1. c #47385F",
"2. c #423756",
"3. c gray24",
"4. c gray33",
"5. c #676767",
"6. c gray25",
"7. c gray19",
"8. c #6D6D6D",
"9. c #272727",
"0. c gray100",
"q. c gray100",
"w. c gray100",
"e. c gray100",
"r. c gray100",
"t. c gray100",
"y. c gray100",
"u. c gray100",
"i. c None",
/* pixels */
"i.i.i.i.i.i.i.i.i.i.i.i.i.i.i.i.",
"i.i.i.i.i.i.i.i.i.i.i.i.  . X o ",
"i.i.i.i.i.i.i.i.i.i.i.i.O + @ # ",
"$ % % % % % % % % % & * = - ; : ",
"> , < < < < 1 2 3 * 4 5 6 7 8 9 ",
"> 0 q w e r t y u i p a s d f # ",
"> 0 g h j k l z 4 p x c v b n m ",
"M N B V C Z A S 5 a c D F G H > ",
"J K L P I U Y T 6 s v F R E W > ",
"J Q ! ~ ^ / ( ) _ d b ` ' ] W > ",
"[ { } |  ...X.o.O.f n +.@.] W > ",
"> #.$.%.&.*.=.-.;.G :.>.,.] W > ",
"> <.1.1.2.3.4.5.6.>.>.>.>.>.7.> ",
"8.9.9.9.9.9.9.9.9.9.9.9.9.9.9.8.",
"i.i.i.i.i.i.i.i.i.i.i.i.i.i.i.i.",
"i.i.i.i.i.i.i.i.i.i.i.i.i.i.i.i."
};
