/* XPM */
static char *EditFolder_xpm[] = {
/* columns rows colors chars-per-pixel */
"16 16 129 2",
"   c #727272",
".  c #252525",
"X  c #5F5F5F",
"o  c gray69",
"O  c #8B8B8B",
"+  c gray29",
"@  c #2C2C2C",
"#  c gray35",
"$  c #929292",
"%  c #B6B6B6",
"&  c #322D2D",
"*  c #997676",
"=  c #4C3939",
"-  c gray36",
";  c gray66",
":  c gray30",
">  c #6D693C",
",  c #C4B998",
"<  c #CCC0A9",
"1  c #5E5A51",
"2  c #606060",
"3  c #7C7C7C",
"4  c #656565",
"5  c #1B1B1B",
"6  c #332424",
"7  c #FFB5B5",
"8  c #E07A7A",
"9  c #321B1B",
"0  c #A7A7A7",
"q  c gray26",
"w  c #99907F",
"e  c #CFC364",
"r  c #C3B848",
"t  c #B9A525",
"y  c #433C0E",
"u  c #2B2824",
"i  c #322813",
"p  c #D69C21",
"a  c #5A5A00",
"s  c #5A4138",
"d  c #993838",
"f  c #210909",
"g  c #E2D590",
"h  c #DBCE80",
"j  c #CCC15E",
"k  c #958E81",
"l  c #3F3116",
"z  c #C19532",
"x  c #FEF476",
"c  c #E8CC1C",
"v  c #574611",
"b  c #0E0E0E",
"n  c gray27",
"m  c #E8DDA1",
"M  c #E3D895",
"N  c #8E895D",
"B  c #FEF165",
"V  c #FEDC33",
"C  c #E0A13F",
"Z  c #4C3B20",
"A  c #1D1D1D",
"S  c #DAD080",
"D  c #D1C96B",
"F  c #8A8655",
"G  c #1C1B18",
"H  c #FEBA45",
"J  c #322715",
"K  c #5A5122",
"L  c #3C3304",
"P  c #585858",
"I  c #979054",
"U  c #383229",
"Y  c #332F29",
"T  c #52522A",
"R  c #E7CA24",
"E  c #72704E",
"W  c #C3B340",
"Q  c #463A00",
"!  c #A39040",
"~  c #BEA272",
"^  c #FFE9C4",
"/  c #594B34",
"(  c #534227",
")  c #656344",
"_  c #AB9640",
"`  c #C7A872",
"'  c #FFDCA3",
"]  c #CCA260",
"[  c #696644",
"{  c #C5BD67",
"}  c #867E40",
"|  c #5F4415",
" . c #8F661D",
".. c #65491B",
"X. c #544600",
"o. c #8C7400",
"O. c #382E00",
"+. c gray68",
"@. c #646464",
"#. c #777777",
"$. c #AAAAAA",
"%. c gray60",
"&. c gray100",
"*. c gray100",
"=. c gray100",
"-. c gray100",
";. c gray100",
":. c gray100",
">. c gray100",
",. c gray100",
"<. c gray100",
"1. c gray100",
"2. c gray100",
"3. c gray100",
"4. c gray100",
"5. c gray100",
"6. c gray100",
"7. c gray100",
"8. c gray100",
"9. c gray100",
"0. c gray100",
"q. c gray100",
"w. c gray100",
"e. c gray100",
"r. c gray100",
"t. c gray100",
"y. c gray100",
"u. c gray100",
"i. c None",
/* pixels */
"i.i.i.i.i.i.i.i.i.i.i.i.i.i.i.i.",
"i.i.i.i.i.i.i.i.i.i.i.i.  . X i.",
"o O + @ @ @ # $ % i.i.i.& * = - ",
"; : > , < < 1 2 3 3 4 5 6 7 8 9 ",
"0 q w e r r t y u 5 i p a s d f ",
"0 q w g h h h j k l z x c v b n ",
"0 q w m M M M N i z B V C Z A - ",
"0 q w S D D F G p x V H J K L P ",
"0 q w S D I U Y T R C J E W Q P ",
"0 q w S D ! ~ ^ / ( Z ) D W Q P ",
"0 q w S D _ ` ' ] b [ { D W Q P ",
"0 q w S D } |  ...) { D D W Q P ",
"0 q X.o.o.o.o.o.o.o.o.o.o.o.O.P ",
"+.@.@ @ @ @ @ @ @ @ @ @ @ @ @ #.",
"i.$.%.%.%.%.%.%.%.%.%.%.%.%.%.o ",
"i.i.i.i.i.i.i.i.i.i.i.i.i.i.i.i."
};
