/* XPM */
static char *Exit_xpm[] = {
/* columns rows colors chars-per-pixel */
"16 16 129 2",
"   c #936060",
".  c #653232",
"X  c #8C5959",
"o  c #794646",
"O  c #6B3737",
"+  c #A27474",
"@  c gray31",
"#  c #101010",
"$  c #4C4C4C",
"%  c #8C7D7D",
"&  c #2F2F2F",
"*  c gray7",
"=  c #755B5B",
"-  c #976E6E",
";  c #5B2935",
":  c #99485C",
">  c #3A3A3A",
",  c gray55",
"<  c #372C2E",
"1  c #AD5167",
"2  c #33181E",
"3  c #665252",
"4  c #916363",
"5  c gray32",
"6  c #5A2B36",
"7  c #FC81A2",
"8  c #903F59",
"9  c #232323",
"0  c #A34F64",
"q  c #F6759B",
"w  c #30151D",
"e  c gray51",
"r  c #67323F",
"t  c #EAA9B9",
"y  c #E73871",
"u  c #C10040",
"i  c #730026",
"p  c #120005",
"a  c #AD5A6E",
"s  c #F691AF",
"d  c #E11C5D",
"f  c #A60037",
"g  c #990033",
"h  c #900030",
"j  c #340011",
"k  c #4E4E4E",
"l  c #E85586",
"z  c #DC0049",
"x  c #C80042",
"c  c #56001C",
"v  c #A9445D",
"b  c #F9BECF",
"n  c #E01E5E",
"m  c #E1004A",
"M  c #E3004B",
"N  c #C90042",
"B  c #410015",
"V  c #5F5F5F",
"C  c #3B0B1B",
"Z  c #BC335A",
"A  c #D91147",
"S  c #DA0046",
"D  c #BB0036",
"F  c #4E0019",
"G  c #660021",
"H  c #E5446F",
"J  c #D70040",
"K  c #D00045",
"L  c #CE0044",
"P  c #B7003C",
"I  c #3C0013",
"U  c #9A7171",
"Y  c gray37",
"T  c #450F21",
"R  c #9A0015",
"E  c #C90023",
"W  c #93000B",
"Q  c #5A001D",
"!  c #6A001B",
"~  c #B9001D",
"^  c #CE002B",
"/  c #710020",
"(  c #24000B",
")  c #956767",
"_  c #A80017",
"`  c #6F0000",
"'  c #3B2F32",
"]  c #650017",
"[  c #B0000B",
"{  c #250000",
"}  c #37000F",
"|  c #5E0017",
" . c #939393",
".. c #1F0007",
"X. c #131313",
"o. c #948585",
"O. c #393939",
"+. c #966363",
"@. c #6E3A3A",
"#. c #824E4E",
"$. c gray100",
"%. c gray100",
"&. c gray100",
"*. c gray100",
"=. c gray100",
"-. c gray100",
";. c gray100",
":. c gray100",
">. c gray100",
",. c gray100",
"<. c gray100",
"1. c gray100",
"2. c gray100",
"3. c gray100",
"4. c gray100",
"5. c gray100",
"6. c gray100",
"7. c gray100",
"8. c gray100",
"9. c gray100",
"0. c gray100",
"q. c gray100",
"w. c gray100",
"e. c gray100",
"r. c gray100",
"t. c gray100",
"y. c gray100",
"u. c gray100",
"i. c None",
/* pixels */
"i.i.i.i.i.i.i.i.i.i.i.i.i.i.i.i.",
"i.i.i.i.i.i.i.i.i.i.i.i.i.i.i.i.",
"i.i.i.i.  . X i.i.i.o O i.i.i.i.",
"i.i.i.+ @ # $ i.i.% & * = i.i.i.",
"i.i.- @ ; : > i., < 1 2 3 i.i.i.",
"i.4 5 6 7 8 9 > < 0 q w > > > e ",
"- 5 r t y u i p a s d f g h j k ",
"@ 6 t l z x c v b n z m M N B k ",
"V C Z A S D F G H J z K L P I k ",
"U Y T R E W Q p ! ~ ^ / Q Q ( k ",
"i.) Y C _ ` 9 > ' ] [ { > > > e ",
"i.i.U V } | > i. .' ! ..3 i.i.i.",
"i.i.i.+ V X.$ i.i.o.O.X.= i.i.i.",
"i.i.i.i.+.@.X i.i.i.#.@.i.i.i.i.",
"i.i.i.i.i.i.i.i.i.i.i.i.i.i.i.i.",
"i.i.i.i.i.i.i.i.i.i.i.i.i.i.i.i."
};
