/* XPM */
static char *Folder_xpm[] = {
/* columns rows colors chars-per-pixel */
"16 16 257 2",
"   c black",
".  c #800000",
"X  c #008000",
"o  c #808000",
"O  c navy",
"+  c #800080",
"@  c #008080",
"#  c #C0C0C0",
"$  c #C0DCC0",
"%  c #A6CAF0",
"&  c #FFF0D4",
"*  c #F8E2B1",
"=  c #DFD48E",
"-  c #D1C96B",
";  c #C3B848",
":  c #BDAA25",
">  c #C5AA00",
",  c #AF9200",
"<  c #937A00",
"1  c #626200",
"2  c #4A4A00",
"3  c #323200",
"4  c #FFE3D4",
"5  c #FFC7B1",
"6  c #FFAB8E",
"7  c #FF8F6B",
"8  c #FF7348",
"9  c #FF5725",
"0  c #FF5500",
"q  c #DC4900",
"w  c #B93D00",
"e  c #963100",
"r  c #732500",
"t  c #501900",
"y  c #FFD4D4",
"u  c #FFB1B1",
"i  c #FF8E8E",
"p  c #FF6B6B",
"a  c #FF4848",
"s  c #FF2525",
"d  c #FE0000",
"f  c #DC0000",
"g  c #B90000",
"h  c #960000",
"j  c #730000",
"k  c #500000",
"l  c #FFD4E3",
"z  c #FFB1C7",
"x  c #FF8EAB",
"c  c #FF6B8F",
"v  c #FF4873",
"b  c #FF2557",
"n  c #FF0055",
"m  c #DC0049",
"M  c #B9003D",
"N  c #960031",
"B  c #730025",
"V  c #500019",
"C  c #FFD4F0",
"Z  c #FFB1E2",
"A  c #FF8ED4",
"S  c #FF6BC6",
"D  c #FF48B8",
"F  c #FF25AA",
"G  c #FF00AA",
"H  c #DC0092",
"J  c #B9007A",
"K  c #960062",
"L  c #73004A",
"P  c #500032",
"I  c #FFD4FF",
"U  c #FFB1FF",
"Y  c #FF8EFF",
"T  c #FF6BFF",
"R  c #FF48FF",
"E  c #FF25FF",
"W  c #FE00FE",
"Q  c #DC00DC",
"!  c #B900B9",
"~  c #960096",
"^  c #730073",
"/  c #500050",
"(  c #F0D4FF",
")  c #E2B1FF",
"_  c #D48EFF",
"`  c #C66BFF",
"'  c #B848FF",
"]  c #AA25FF",
"[  c #AA00FF",
"{  c #9200DC",
"}  c #7A00B9",
"|  c #620096",
" . c #4A0073",
".. c #320050",
"X. c #E3D4FF",
"o. c #C7B1FF",
"O. c #AB8EFF",
"+. c #8F6BFF",
"@. c #7348FF",
"#. c #5725FF",
"$. c #5500FF",
"%. c #4900DC",
"&. c #3D00B9",
"*. c #310096",
"=. c #250073",
"-. c #190050",
";. c #D4D4FF",
":. c #B1B1FF",
">. c #8E8EFF",
",. c #6B6BFF",
"<. c #4848FF",
"1. c #2525FF",
"2. c #0000FE",
"3. c #0000DC",
"4. c #0000B9",
"5. c #000096",
"6. c #000073",
"7. c #000050",
"8. c #D4E3FF",
"9. c #B1C7FF",
"0. c #8EABFF",
"q. c #6B8FFF",
"w. c #4873FF",
"e. c #2557FF",
"r. c #0055FF",
"t. c #0049DC",
"y. c #003DB9",
"u. c #003196",
"i. c #002573",
"p. c #001950",
"a. c #D4F0FF",
"s. c #B1E2FF",
"d. c #8ED4FF",
"f. c #6BC6FF",
"g. c #48B8FF",
"h. c #25AAFF",
"j. c #00AAFF",
"k. c #0092DC",
"l. c #007AB9",
"z. c #006296",
"x. c #004A73",
"c. c #003250",
"v. c #D4FFFF",
"b. c #B1FFFF",
"n. c #8EFFFF",
"m. c #6BFFFF",
"M. c #48FFFF",
"N. c #25FFFF",
"B. c #00FEFE",
"V. c #00DCDC",
"C. c #00B9B9",
"Z. c #009696",
"A. c #007373",
"S. c #005050",
"D. c #D4FFF0",
"F. c #B1FFE2",
"G. c #8EFFD4",
"H. c #6BFFC6",
"J. c #48FFB8",
"K. c #25FFAA",
"L. c #00FFAA",
"P. c #00DC92",
"I. c #00B97A",
"U. c #009662",
"Y. c #00734A",
"T. c #005032",
"R. c #D4FFE3",
"E. c #B1FFC7",
"W. c #8EFFAB",
"Q. c #6BFF8F",
"!. c #48FF73",
"~. c #25FF57",
"^. c #00FF55",
"/. c #00DC49",
"(. c #00B93D",
"). c #009631",
"_. c #007325",
"`. c #005019",
"'. c #D4FFD4",
"]. c #B1FFB1",
"[. c #8EFF8E",
"{. c #6BFF6B",
"}. c #48FF48",
"|. c #25FF25",
" X c #00FE00",
".X c #00DC00",
"XX c #00B900",
"oX c #009600",
"OX c #007300",
"+X c #005000",
"@X c #E3FFD4",
"#X c #C7FFB1",
"$X c #ABFF8E",
"%X c #8FFF6B",
"&X c #73FF48",
"*X c #57FF25",
"=X c #55FF00",
"-X c #49DC00",
";X c #3DB900",
":X c #319600",
">X c #257300",
",X c #195000",
"<X c #F0FFD4",
"1X c #E2FFB1",
"2X c #D4FF8E",
"3X c #C6FF6B",
"4X c #B8FF48",
"5X c #AAFF25",
"6X c #AAFF00",
"7X c #92DC00",
"8X c #7AB900",
"9X c #629600",
"0X c #4A7300",
"qX c #325000",
"wX c #FFFFD4",
"eX c #FFFFB1",
"rX c #FFFF8E",
"tX c #FFFF6B",
"yX c #FFFF48",
"uX c #FFFF25",
"iX c #FEFE00",
"pX c #DCDC00",
"aX c #B9B900",
"sX c #969600",
"dX c #737300",
"fX c #505000",
"gX c gray95",
"hX c #E6E6E6",
"jX c #DADADA",
"kX c #CECECE",
"lX c gray76",
"zX c #B6B6B6",
"xX c #AAAAAA",
"cX c gray62",
"vX c #929292",
"bX c #868686",
"nX c gray48",
"mX c gray43",
"MX c #626262",
"NX c #565656",
"BX c gray29",
"VX c #3E3E3E",
"CX c #323232",
"ZX c gray15",
"AX c gray10",
"SX c #0E0E0E",
"DX c #FFFBF0",
"FX c #A0A0A4",
"GX c #808080",
"HX c red",
"JX c green",
"KX c yellow",
"LX c blue",
"PX c magenta",
"IX c cyan",
"UX c gray100",
"YX c None",
/* pixels */
"YXYXYXYXYXYXYXYXYXYXYXYXYXYXYXYX",
"YXzXbXmXmXmXmXbXYXYXYXYXYXYXYXYX",
"zXbXmX        mXzXzXYXYXYXYXYXYX",
"zXmX  - & & &   mXmXmXmXmXmXmXmX",
"zXmX  & ; ; ; ; & & & & & & ,   ",
"zXmX  & & & & & - - - - - - ,   ",
"zXmX  & - - - - - - - - - - ,   ",
"zXmX  & - - - - - - - - - - ,   ",
"zXmX  & - - - - - - - - - - ,   ",
"zXmX  & - - - - - - - - - - ,   ",
"zXmX  & - - - - - - - - - - ,   ",
"zXmX  & - - - - - - - - - - ,   ",
"zXmX                            ",
"YXzXmXmXmXmXmXmXmXmXmXmXmXmXmXmX",
"YXYXzXzXzXzXzXzXzXzXzXzXzXzXzXzX",
"YXYXYXYXYXYXYXYXYXYXYXYXYXYXYXYX"
};
