/* XPM */
static char *Forward_xpm[] = {
/* columns rows colors chars-per-pixel */
"16 16 257 2",
"   c #868686",
".  c #4A4A42",
"X  c #2D2A13",
"o  c #3D3C27",
"O  c gray36",
"+  c #8F6666",
"@  c #8E7F7F",
"#  c #2B291D",
"$  c #6A6021",
"%  c #AA9C44",
"&  c #999238",
"*  c #362E07",
"=  c #4E4E4E",
"-  c #926464",
";  c #A06D6D",
":  c gray38",
">  c #5B5719",
",  c #EBDDAB",
"<  c #EBE2B4",
"1  c #D1C66C",
"2  c #958411",
"3  c #41411E",
"4  c #8B8B8B",
"5  c gray18",
"6  c #9B891F",
"7  c #E5DA9F",
"8  c #E1D797",
"9  c #C8BD56",
"0  c #B29F1D",
"q  c #574B04",
"w  c #727272",
"e  c #595454",
"r  c #686516",
"t  c #CABC5E",
"y  c #C1B541",
"u  c #BBA824",
"i  c #978000",
"p  c #4A4A1B",
"a  c #827373",
"s  c #7B6161",
"d  c #312E1F",
"f  c #716408",
"g  c #A49216",
"h  c #958304",
"j  c #4E4207",
"k  c #484848",
"l  c #4A1717",
"z  c #3C3232",
"x  c gray12",
"c  c #1E1E0E",
"v  c #413B0E",
"b  c #48461D",
"n  c #070707",
"m  c gray19",
"M  c #381919",
"N  c #622F2F",
"B  c #4B3131",
"V  c #544444",
"C  c #272727",
"Z  c #9A9A9A",
"A  c #C1C1C1",
"S  c #C6C6C6",
"D  c #BCBCBC",
"F  c #AEAEAE",
"G  c gray27",
"H  c #02070A",
"J  c #1C2932",
"K  c #131313",
"L  c gray65",
"P  c #AAAAAA",
"I  c gray94",
"U  c #E1E1E1",
"Y  c #DADADA",
"T  c #CDCDCD",
"R  c gray70",
"E  c gray34",
"W  c #3A3A3A",
"Q  c #0E2433",
"!  c #368BC1",
"~  c #0B1D28",
"^  c #656565",
"/  c #5A5A46",
"(  c #9F9F8B",
")  c #969682",
"_  c #868672",
"`  c #828276",
"'  c #11191E",
"]  c #447899",
"[  c #2B6E99",
"{  c #307DAD",
"}  c #48B8FF",
"|  c #413D00",
" . c #766500",
".. c #6C5D00",
"X. c #605400",
"o. c #757557",
"O. c #051F2D",
"+. c #169CE3",
"@. c #0E99E3",
"#. c #199FE8",
"$. c #25A5EE",
"%. c #021E2D",
"&. c #2B2500",
"*. c #A38800",
"=. c #645700",
"-. c #957D00",
";. c #776300",
":. c #171711",
">. c #111111",
",. c #0B2331",
"<. c #2298DB",
"1. c #07364D",
"2. c #393939",
"3. c #231D00",
"4. c #524800",
"5. c #947C00",
"6. c #756100",
"7. c #655656",
"8. c #9D8484",
"9. c #6E3A3A",
"0. c #00111A",
"q. c #093E59",
"w. c #3E2020",
"e. c #605555",
"r. c #3A3000",
"t. c #8C7400",
"y. c #252525",
"u. c #684E4E",
"i. c #191700",
"p. c #7C7100",
"a. c #2F2B00",
"s. c #675D00",
"d. c #5E5600",
"f. c #030300",
"g. c #131300",
"h. c #070700",
"j. c #0F0F00",
"k. c gray100",
"l. c gray100",
"z. c gray100",
"x. c gray100",
"c. c gray100",
"v. c gray100",
"b. c gray100",
"n. c gray100",
"m. c gray100",
"M. c gray100",
"N. c gray100",
"B. c gray100",
"V. c gray100",
"C. c gray100",
"Z. c gray100",
"A. c gray100",
"S. c gray100",
"D. c gray100",
"F. c gray100",
"G. c gray100",
"H. c gray100",
"J. c gray100",
"K. c gray100",
"L. c gray100",
"P. c gray100",
"I. c gray100",
"U. c gray100",
"Y. c gray100",
"T. c gray100",
"R. c gray100",
"E. c gray100",
"W. c gray100",
"Q. c gray100",
"!. c gray100",
"~. c gray100",
"^. c gray100",
"/. c gray100",
"(. c gray100",
"). c gray100",
"_. c gray100",
"`. c gray100",
"'. c gray100",
"]. c gray100",
"[. c gray100",
"{. c gray100",
"}. c gray100",
"|. c gray100",
" X c gray100",
".X c gray100",
"XX c gray100",
"oX c gray100",
"OX c gray100",
"+X c gray100",
"@X c gray100",
"#X c gray100",
"$X c gray100",
"%X c gray100",
"&X c gray100",
"*X c gray100",
"=X c gray100",
"-X c gray100",
";X c gray100",
":X c gray100",
">X c gray100",
",X c gray100",
"<X c gray100",
"1X c gray100",
"2X c gray100",
"3X c gray100",
"4X c gray100",
"5X c gray100",
"6X c gray100",
"7X c gray100",
"8X c gray100",
"9X c gray100",
"0X c gray100",
"qX c gray100",
"wX c gray100",
"eX c gray100",
"rX c gray100",
"tX c gray100",
"yX c gray100",
"uX c gray100",
"iX c gray100",
"pX c gray100",
"aX c gray100",
"sX c gray100",
"dX c gray100",
"fX c gray100",
"gX c gray100",
"hX c gray100",
"jX c gray100",
"kX c gray100",
"lX c gray100",
"zX c gray100",
"xX c gray100",
"cX c gray100",
"vX c gray100",
"bX c gray100",
"nX c gray100",
"mX c gray100",
"MX c gray100",
"NX c gray100",
"BX c gray100",
"VX c gray100",
"CX c gray100",
"ZX c gray100",
"AX c gray100",
"SX c gray100",
"DX c gray100",
"FX c gray100",
"GX c gray100",
"HX c gray100",
"JX c gray100",
"KX c gray100",
"LX c gray100",
"PX c gray100",
"IX c gray100",
"UX c gray100",
"YX c None",
/* pixels */
"YXYXYXYXYXYXYXYX  . X o O + YXYX",
"YXYXYXYXYXYXYX@ # $ % & * = - YX",
"YXYXYXYXYXYX; : > , < 1 2 3 4 YX",
"YXYXYXYXYXYX; 5 6 7 8 9 0 q w YX",
"YXYXYXYXYXYXYXe r t y u i p a YX",
"YXYXYXYXYXYXYXs d f g h j k YXYX",
"YXYXYXYXYXYXl z x c v b n m M N ",
"YXYXYXYXB V C Z A S S D F F G = ",
"YXYXYXYXH J K L P I U Y T R E = ",
"W W W W Q ! ~ ^ / ( ) ) _ ` E = ",
"' ] [ [ { } ! J |  .....X.o.E = ",
"O.+.@.@.#.} $.%.&.*.=.-.;.:.>.= ",
"K K K K ,.<.1.2.3.*.4.5.6.C 7.8.",
"9.9.9.9.0.q.w.e.3.*.r.t.6.C YXYX",
"YXYXYXYXy.w.YXu.i.p.a.s.d.C YXYX",
"YXYXYXYXYXYXYXu.f.g.h.j.j.C YXYX"
};
