/* XPM */
static char *GreenFlag_xpm[] = {
/* columns rows colors chars-per-pixel */
"16 16 129 2",
"   c #5A5A5A",
".  c gray46",
"X  c #848484",
"o  c gray44",
"O  c #3C4940",
"+  c #003110",
"@  c #004A18",
"#  c #003411",
"$  c #43413D",
"%  c #584E2A",
"&  c #3F3B23",
"*  c #929292",
"=  c gray50",
"-  c #464646",
";  c #3A3A3A",
":  c #1F6235",
">  c #008F2F",
",  c #007927",
"<  c #322D23",
"1  c #D4BC6A",
"2  c #3F3500",
"3  c #6C6C6C",
"4  c #1D1D1D",
"5  c #193321",
"6  c #087A2D",
"7  c #009431",
"8  c #005A1C",
"9  c #00872C",
"0  c #002F0F",
"q  c #C5B178",
"w  c #7E6B15",
"e  c #3B392F",
"r  c #2F3832",
"t  c #001F0A",
"y  c #00581C",
"u  c #00B23B",
"i  c #00A737",
"p  c #009A32",
"a  c #00A335",
"s  c #005E1E",
"d  c #00852B",
"f  c #006220",
"g  c #283120",
"h  c #D2BC71",
"j  c #4E4208",
"k  c gray35",
"l  c #4E4E4E",
"z  c #00280D",
"x  c #00A837",
"c  c #009631",
"v  c #00AB38",
"b  c #006520",
"n  c #007A27",
"m  c #008B2D",
"M  c #C6B58E",
"N  c #836D00",
"B  c #2F2F2F",
"V  c #535353",
"C  c #233027",
"Z  c #00601F",
"A  c #009E34",
"S  c #008E2E",
"D  c #006922",
"F  c #006721",
"G  c #595E44",
"H  c #C1AA4E",
"J  c #3B330C",
"K  c gray30",
"L  c gray37",
"P  c #101C14",
"I  c #00250C",
"U  c #007726",
"Y  c #006F24",
"T  c #006C23",
"R  c #003812",
"E  c #95886A",
"W  c #AC9323",
"Q  c #1B1B1B",
"!  c #888888",
"~  c gray32",
"^  c #191919",
"/  c #083F1A",
"(  c #001607",
")  c #101010",
"_  c #635A47",
"`  c #C9AF47",
"'  c #221C00",
"]  c #272727",
"[  c #938455",
"{  c #8C7A2A",
"}  c #312E1F",
"|  c #656565",
" . c gray16",
".. c #565656",
"X. c #37342C",
"o. c #5B5444",
"O. c #413912",
"+. c #646464",
"@. c #747474",
"#. c #767676",
"$. c gray100",
"%. c gray100",
"&. c gray100",
"*. c gray100",
"=. c gray100",
"-. c gray100",
";. c gray100",
":. c gray100",
">. c gray100",
",. c gray100",
"<. c gray100",
"1. c gray100",
"2. c gray100",
"3. c gray100",
"4. c gray100",
"5. c gray100",
"6. c gray100",
"7. c gray100",
"8. c gray100",
"9. c gray100",
"0. c gray100",
"q. c gray100",
"w. c gray100",
"e. c gray100",
"r. c gray100",
"t. c gray100",
"y. c gray100",
"u. c gray100",
"i. c None",
/* pixels */
"i.i.i.i.i.i.i.i.i.  . . X . o i.",
"i.i.i.i.i.i.i.i.O + @ # $ % & o ",
"i.i.i.i.* = - ; : > > , < 1 2 . ",
"i.i.* 3 4 5 6 7 8 9 > 0 q w e i.",
"i.r t y u i p a s d f g h j k i.",
"l z 9 x c c v b n m + M N B i.i.",
"V C z Z d A S D m F G H J K i.i.",
"i.o L P I U Y T m R E W Q ! i.i.",
"i.i.i.* ~ ^ / ( ) _ ` ' 3 i.i.i.",
"i.i.i.i.i.= ] i.$ [ { } i.i.i.i.",
"i.i.i.i.i.i.i.i.< 1 2 | i.i.i.i.",
"i.i.i.i.i.i.i. .q w e i.i.i.i.i.",
"i.i.i.i.i.i...X.h j k i.i.i.i.i.",
"i.i.i.i.i.i.; M N B i.i.i.i.i.i.",
"i.i.i.i.i.i.K o.O.+.i.i.i.i.i.i.",
"i.i.i.i.i.i.i.@.#.i.i.i.i.i.i.i."
};
