/* XPM */
static char *New_xpm[] = {
/* columns rows colors chars-per-pixel */
"16 16 129 2",
"   c #717171",
".  c #72664E",
"X  c #CE9321",
"o  c #69604E",
"O  c #4E4E4E",
"+  c gray58",
"@  c #5C4A27",
"#  c #CD9122",
"$  c #FBD23C",
"%  c #B07B1A",
"&  c #4E553D",
"*  c #476666",
"=  c gray26",
"-  c gray13",
";  c #3E3E3E",
":  c #393939",
">  c #979797",
",  c #D59310",
"<  c #EBC922",
"1  c #FBF609",
"2  c #EDBF1A",
"3  c #DAB23D",
"4  c #D0E6D4",
"5  c #A5A5A5",
"6  c gray37",
"7  c #C6C6C6",
"8  c #5D5D5D",
"9  c #3A3A3A",
"0  c #929292",
"q  c #E99B00",
"w  c #EBC000",
"e  c #DDDA00",
"r  c #F8F8A3",
"t  c #DFD800",
"y  c #F0B700",
"u  c #E3A325",
"i  c gray40",
"p  c #F9F9F9",
"a  c #C8C8C8",
"s  c gray32",
"d  c #FDCE52",
"f  c #FBEB00",
"g  c #FBF400",
"h  c #FEFEA3",
"j  c #F8F800",
"k  c #FCF200",
"l  c #F9EA00",
"z  c #C4A065",
"x  c gray80",
"c  c #848484",
"v  c #272727",
"b  c #E79A00",
"n  c #EDB800",
"m  c #E2D400",
"M  c #EEB000",
"N  c #EBB852",
"B  c #C5C5C5",
"V  c #C78C18",
"C  c #F0C533",
"Z  c #FCF50D",
"A  c #EEBA27",
"S  c #D2BD5C",
"D  c #CDF6EB",
"F  c #CCFBFB",
"G  c #BDEBEB",
"H  c #97BCBC",
"J  c #423927",
"K  c #D59211",
"L  c #FFEF04",
"P  c #F4BF56",
"I  c #DFE2D7",
"U  c #EBFBFB",
"Y  c #EFFFFF",
"T  c #E3F3F3",
"R  c #DBEBEB",
"E  c #B0BCBC",
"W  c #CC8800",
"Q  c #FFEE00",
"!  c #E3C963",
"~  c #BBF9F9",
"^  c #C0FEFE",
"/  c #C1FFFF",
"(  c #BDFBFB",
")  c #96C8C8",
"_  c #C18000",
"`  c #FCDA22",
"'  c #E1BD5D",
"]  c #CEEDED",
"[  c #DDFCFC",
"{  c LightCyan",
"}  c #D4F3F3",
"|  c #A7C0C0",
" . c #9E8657",
".. c #E6AA3B",
"X. c #D0CAA7",
"o. c #D1F0F0",
"O. c #8EC0C0",
"+. c #EBBAA2",
"@. c #B8F6F6",
"#. c #BCFAFA",
"$. c #919D9D",
"%. c #F4B9B9",
"&. c #C8D8D8",
"*. c #CEDEDE",
"=. c #D9E9E9",
"-. c #E7F7F7",
";. c #C0CCCC",
":. c #8FB5B5",
">. c #F2BDBD",
",. c #BFEEEE",
"<. c #C1F0F0",
"1. c #C3F2F2",
"2. c #C6F5F5",
"3. c #9FC4C4",
"4. c #624949",
"5. c #555555",
"6. c gray34",
"7. c gray35",
"8. c gray36",
"9. c gray29",
"0. c #A9A9A9",
"q. c gray100",
"w. c gray100",
"e. c gray100",
"r. c gray100",
"t. c gray100",
"y. c gray100",
"u. c gray100",
"i. c None",
/* pixels */
"i.i.  . X o O O O O O + i.i.i.i.",
"i.i.@ # $ % & * = - ; : > i.i.i.",
"i.i., < 1 2 3 4 5 6 7 8 9 0 i.i.",
"i.q w e r t y u 5 i p a s 9 > i.",
"d f g r h j k l z s x x c v + i.",
"i.b n t j m M N B s s s = v + i.",
"i.i.V C Z A S D F G G G H v + i.",
"i.i.J K L P I U Y Y T R E v + i.",
"i.i.v W Q ! ~ ^ / / / ( ) v + i.",
"i.i.v _ ` ' ] [ { { { } | v + i.",
"i.i.v  ...X.] o.{ { { { | v + i.",
"i.i.v O.+.@.~ #./ / / / ) v + i.",
"i.i.v $.%.&.*.=.R R -.Y ;.v + i.",
"i.i.v :.>.G ,.<.<.1.2.2.3.v + i.",
"i.i.v 9 4.s 5.6.6.7.8.8.9.v + i.",
"i.i.  O O O O O O O O O O   0.i."
};
