/* XPM */
static char *NewBCard_xpm[] = {
/* columns rows colors chars-per-pixel */
"16 16 129 2",
"   c #D69B29",
".  c #7D715A",
"X  c #C18D2B",
"o  c #FAD23B",
"O  c #DFA334",
"+  c #C18611",
"@  c #ECBE19",
"#  c #FAF608",
"$  c #EBC922",
"%  c #DD9B18",
"&  c #D69618",
"*  c #EFB700",
"=  c #DED800",
"-  c #F8F8A3",
";  c #DDDA00",
":  c #EBC000",
">  c #DF9A12",
",  c #80745D",
"<  c #6C6C6C",
"1  c #9A9A9A",
"2  c #F9EA00",
"3  c #FCF200",
"4  c #F8F87A",
"5  c #FDFDCC",
"6  c #F8F800",
"7  c #FAF400",
"8  c #FAEB00",
"9  c #FDD66D",
"0  c gray20",
"q  c #2D2D2D",
"w  c #2F2F2F",
"e  c gray7",
"r  c #4E4E4E",
"t  c #B9851F",
"y  c #EEB000",
"u  c #E1D400",
"i  c #ECB800",
"p  c #ECB13D",
"a  c #AEA594",
"s  c #9F9F9F",
"d  c #D5D5D5",
"f  c #F4F4F4",
"g  c #E2E2E2",
"h  c #D7D7D7",
"j  c #605A4E",
"k  c #926100",
"l  c #EEBA26",
"z  c #FCF50C",
"x  c #EFC433",
"c  c #D2902F",
"v  c #DFCCC8",
"b  c #B2B2B2",
"n  c gray62",
"m  c #989898",
"M  c #C8C8C8",
"N  c gray89",
"B  c gray83",
"V  c gray72",
"C  c #3C3C3C",
"Z  c #4F4E4E",
"A  c #523C51",
"S  c #E7A55E",
"D  c #FFEF04",
"F  c #ECA530",
"G  c #9A78AC",
"H  c #D3C7E7",
"J  c gray40",
"K  c gray25",
"L  c #3E3E3E",
"P  c #3A3A3A",
"I  c #555555",
"U  c #534F4F",
"Y  c #362929",
"T  c #C08D28",
"R  c #FFEE00",
"E  c #E9A51D",
"W  c #8F84A1",
"Q  c #CFC4E2",
"!  c #D8D8D8",
"~  c gray76",
"^  c #AEAEAE",
"/  c gray66",
"(  c gray68",
")  c #B1B1B1",
"_  c #332626",
"`  c #B58424",
"'  c #FCD922",
"]  c #D8961A",
"[  c #716486",
"{  c #BDB5CC",
"}  c #818181",
"|  c gray39",
" . c gray36",
".. c gray34",
"X. c #514E4E",
"o. c #37293C",
"O. c #866946",
"+. c #D89B25",
"@. c #A17B26",
"#. c #68538B",
"$. c #B7B0C3",
"%. c #797979",
"&. c #585858",
"*. c gray32",
"=. c gray31",
"-. c #302640",
";. c #554952",
":. c #4C3F10",
">. c #524926",
",. c #5C497B",
"<. c #ADA5B9",
"1. c #A4A4A4",
"2. c #939393",
"3. c gray50",
"4. c #1C1626",
"5. c #47385F",
"6. c #655F6F",
"7. c gray19",
"8. c #6D6D6D",
"9. c #272727",
"0. c gray100",
"q. c gray100",
"w. c gray100",
"e. c gray100",
"r. c gray100",
"t. c gray100",
"y. c gray100",
"u. c gray100",
"i. c None",
/* pixels */
"i.i.i.  i.i.i.i.i.i.i.i.i.i.i.i.",
"i.. X o O i.i.i.i.i.i.i.i.i.i.i.",
"i.+ @ # $ % i.i.i.i.i.i.i.i.i.i.",
"& * = - ; : > , < < < < < < < 1 ",
"2 3 4 5 6 7 8 9 0 0 0 0 q w e r ",
"t y u 6 = i p a s s d f g h r r ",
"j k l z x c v b n m M N B V C r ",
"Z A S D F G H J K L C P I V C r ",
"U Y T R E W Q ! ~ V ^ / ( ) C r ",
"U _ ` ' ] [ { } |  . . ...m C r ",
"X.o.O.+.@.#.$.%.&.*.*.*.=.m C r ",
"r -.;.:.>.,.<.) 1.2.%.%.3.m C r ",
"r 4.5.5.5.5.6.%.%.%.%.%.%.%.7.r ",
"8.9.9.9.9.9.9.9.9.9.9.9.9.9.9.8.",
"i.i.i.i.i.i.i.i.i.i.i.i.i.i.i.i.",
"i.i.i.i.i.i.i.i.i.i.i.i.i.i.i.i."
};
