/* XPM */
static char *NewFolder_xpm[] = {
/* columns rows colors chars-per-pixel */
"16 16 129 2",
"   c #D28211",
".  c #F9C648",
"X  c #C2690C",
"o  c #CE7400",
"O  c #EFC433",
"+  c #FCF50C",
"@  c #EEBA26",
"#  c #C06100",
"$  c #9E7676",
"%  c #8B8B8B",
"&  c gray29",
"*  c #2C2C2C",
"=  c gray35",
"-  c #929292",
";  c #A46857",
":  c #ECB800",
">  c #DED800",
",  c #F8F87A",
"<  c #E1D400",
"1  c #EEB000",
"2  c #C26600",
"3  c gray66",
"4  c gray30",
"5  c #6D693C",
"6  c #C4B998",
"7  c #CCC0A9",
"8  c #5E5A51",
"9  c #606060",
"0  c #DBA02E",
"q  c #FACF33",
"w  c #FAF400",
"e  c #F8F8A3",
"r  c #FDFDCC",
"t  c #F8F800",
"y  c #FCF200",
"u  c #F9C544",
"i  c #A7A7A7",
"p  c gray26",
"a  c #99907F",
"s  c #CFC364",
"d  c #C3B848",
"f  c #B9A525",
"g  c #433C0E",
"h  c #56472A",
"j  c #EBA419",
"k  c #EBC000",
"l  c #DDDA00",
"z  c #EFB700",
"x  c #D09011",
"c  c #E2D590",
"v  c #DBCE80",
"b  c #CCC15E",
"n  c #ECE0AA",
"m  c #E4C977",
"M  c #E6A311",
"N  c #EBC922",
"B  c #FAF608",
"V  c #ECBE19",
"C  c #AF7400",
"Z  c #726958",
"A  c #E8DDA1",
"S  c #E3D895",
"D  c #D4CC73",
"F  c #D1C96B",
"G  c #D3BB51",
"H  c #F6B42F",
"J  c #FFF008",
"K  c #E6A719",
"L  c #4D3A00",
"P  c #585858",
"I  c #DAD080",
"U  c #F5B015",
"Y  c #FFEE00",
"T  c #DFA000",
"R  c #463A00",
"E  c #F0AC15",
"W  c #FDE311",
"Q  c #DA9D00",
"!  c #D6AE37",
"~  c #EBAF3B",
"^  c #C79F19",
"/  c #D4B748",
"(  c #C3B340",
")  c #544600",
"_  c #8C7400",
"`  c #382E00",
"'  c #9C7373",
"]  c #646464",
"[  c #777777",
"{  c #976868",
"}  c gray60",
"|  c #965858",
" . c gray100",
".. c gray100",
"X. c gray100",
"o. c gray100",
"O. c gray100",
"+. c gray100",
"@. c gray100",
"#. c gray100",
"$. c gray100",
"%. c gray100",
"&. c gray100",
"*. c gray100",
"=. c gray100",
"-. c gray100",
";. c gray100",
":. c gray100",
">. c gray100",
",. c gray100",
"<. c gray100",
"1. c gray100",
"2. c gray100",
"3. c gray100",
"4. c gray100",
"5. c gray100",
"6. c gray100",
"7. c gray100",
"8. c gray100",
"9. c gray100",
"0. c gray100",
"q. c gray100",
"w. c gray100",
"e. c gray100",
"r. c gray100",
"t. c gray100",
"y. c gray100",
"u. c gray100",
"i. c None",
/* pixels */
"i.i.i.i.i.i.i.i.i.i.i.  . X i.i.",
"i.i.i.i.i.i.i.i.i.i.o O + @ # i.",
"$ % & * * * = - ; o : > , < 1 2 ",
"3 4 5 6 7 7 8 9 0 q w e r t y u ",
"i p a s d d f g h j k l t > z x ",
"i p a c v v v b n m M N B V C Z ",
"i p a A S S S D F F G H J K L P ",
"i p a I F F F F F F F U Y T R P ",
"i p a I F F F F F F F E W Q R P ",
"i p a I F F F F F F F ! ~ ^ R P ",
"i p a I F F F F F F F F / ( R P ",
"i p a I F F F F F F F F F ( R P ",
"i p ) _ _ _ _ _ _ _ _ _ _ _ ` P ",
"' ] * * * * * * * * * * * * * [ ",
"i.{ } } } } } } } } } } } } } | ",
"i.i.i.i.i.i.i.i.i.i.i.i.i.i.i.i."
};
