/* XPM */
static char *Paste_xpm[] = {
/* columns rows colors chars-per-pixel */
"16 16 129 2",
"   c #9A7171",
".  c #A5A5A5",
"X  c gray63",
"o  c gray42",
"O  c gray20",
"+  c #191919",
"@  c #181818",
"#  c gray17",
"$  c #686868",
"%  c #956767",
"&  c gray37",
"*  c #3A3A3A",
"=  c #414141",
"-  c gray57",
";  c #E1E1E1",
":  c gray59",
">  c #929292",
",  c #CBCBCB",
"<  c gray49",
"1  c gray24",
"2  c gray58",
"3  c #272727",
"4  c #583A00",
"5  c #313131",
"6  c gray86",
"7  c #A0A0A0",
"8  c #1D1D1D",
"9  c #946100",
"0  c #6A480A",
"q  c #2D2D2D",
"w  c #4E3404",
"e  c #7D5200",
"r  c #966200",
"t  c #885800",
"y  c #654100",
"u  c #5C3B00",
"i  c #603E00",
"p  c #282828",
"a  c #959595",
"s  c #2E1D00",
"d  c #2D5151",
"f  c #5F4D4D",
"g  c #466666",
"h  c #222828",
"j  c #4E4E4E",
"k  c #3E3E3E",
"l  c #808080",
"z  c #965858",
"x  c #84A8A8",
"c  c #F2BABA",
"v  c #C8E7E7",
"b  c #D5F4F4",
"n  c #5C6363",
"m  c gray89",
"M  c #8D8D8D",
"N  c #727272",
"B  c #78C0C0",
"V  c #F0BEBE",
"C  c #B8F7F7",
"Z  c #BDFBFB",
"A  c #576464",
"S  c #FDFDFD",
"D  c #8B9D9D",
"F  c #F4B8B8",
"G  c #CFDFDF",
"H  c #E1F0F0",
"J  c #90A0A0",
"K  c #7B8B8B",
"L  c #313737",
"P  c #7EB4B4",
"I  c #F1BCBC",
"U  c #C0EFEF",
"Y  c #C9F7F7",
"T  c #CFFDFD",
"R  c #D0FFFF",
"E  c #CEFCFC",
"W  c #516363",
"Q  c #EDFCFC",
"!  c #EFFFFF",
"~  c #EBFAFA",
"^  c #5B6161",
"/  c #8A5A00",
"(  c #301F00",
")  c #C0FEFE",
"_  c #C0FFFF",
"`  c #BFFDFD",
"'  c #4C6464",
"]  c #5A3A00",
"[  c #241700",
"{  c #DEFDFD",
"}  c #DFFFFF",
"|  c #DCFBFB",
" . c #566262",
".. c gray9",
"X. c #1C2828",
"o. c #717171",
"O. c #939393",
"+. c gray100",
"@. c gray100",
"#. c gray100",
"$. c gray100",
"%. c gray100",
"&. c gray100",
"*. c gray100",
"=. c gray100",
"-. c gray100",
";. c gray100",
":. c gray100",
">. c gray100",
",. c gray100",
"<. c gray100",
"1. c gray100",
"2. c gray100",
"3. c gray100",
"4. c gray100",
"5. c gray100",
"6. c gray100",
"7. c gray100",
"8. c gray100",
"9. c gray100",
"0. c gray100",
"q. c gray100",
"w. c gray100",
"e. c gray100",
"r. c gray100",
"t. c gray100",
"y. c gray100",
"u. c gray100",
"i. c None",
/* pixels */
"i.i.  . X o O + @ # $ X .   i.i.",
"i.% & * = - ; : > , < 1 * & % i.",
"i.2 3 4 5 6 7 > > > > 8 4 3 2 i.",
"i.2 3 9 0 q 8 @ @ @ @ w e 3 2 i.",
"i.2 3 9 r t y u u u u u i p a i.",
"i.2 3 9 r t s d f g g h j k l z ",
"i.2 3 9 r t s x c v b n m M k N ",
"i.2 3 9 r t s B V C Z A S m j j ",
"i.2 3 9 r t s D F G H J K K L j ",
"i.2 3 9 r t s P I U Y T R E W j ",
"i.2 3 9 r t s P I U Y T R E W j ",
"i.2 3 9 r t s D F G H Q ! ~ ^ j ",
"i.2 3 9 r / ( B V C Z ) _ ` ' j ",
"i.2 3 4 ] ] [ x c v b { } |  .j ",
"i.% & * * * ..d f g g g g g X.j ",
"i.i.  . . . o.j j j j j j j j O."
};
