/* XPM */
static char *Print_xpm[] = {
/* columns rows colors chars-per-pixel */
"16 16 257 2",
"   c gray55",
".  c gray20",
"X  c #2F2623",
"o  c #2A2A2A",
"O  c gray18",
"+  c #313131",
"@  c gray45",
"#  c #955757",
"$  c gray35",
"%  c #5F7A7A",
"&  c #EBC8B6",
"*  c #B7E4E4",
"=  c #C2F0F0",
"-  c #CBF9F9",
";  c #D1FFFF",
":  c #7D9999",
">  c gray24",
",  c gray65",
"<  c gray60",
"1  c gray25",
"2  c #A6ADA5",
"3  c #DECEC5",
"4  c #B3E0E0",
"5  c #2E4949",
"6  c #676767",
"7  c #965858",
"8  c #7E7878",
"9  c #5B5B5B",
"0  c #0D5454",
"q  c #A6CBBE",
"w  c #53D5D1",
"e  c #2EDEDE",
"r  c #31E1E1",
"t  c #8DF9F9",
"y  c #83CCCC",
"u  c gray8",
"i  c #818181",
"p  c #AD9898",
"a  c #717171",
"s  c gray12",
"d  c #1B2222",
"f  c #B7B5AB",
"g  c #C3C0B7",
"h  c #9BC0C0",
"j  c #9DC3C3",
"k  c #ACD8D8",
"l  c #B8E4E4",
"z  c #0E0E00",
"x  c #383600",
"c  c #1D1800",
"v  c #4C4B46",
"b  c gray44",
"n  c #2F2F2F",
"m  c #867F6F",
"M  c #1D3316",
"N  c #5A8964",
"B  c #1D8C6F",
"V  c #1D9073",
"C  c #1DA184",
"Z  c #302F05",
"A  c #958C3A",
"S  c #B09A28",
"D  c #211C00",
"F  c #88806E",
"G  c #D2C378",
"H  c #928C2B",
"J  c #A39D46",
"K  c #E2D995",
"L  c #C6AE28",
"P  c #241F00",
"I  c #4E4E4E",
"U  c #F1EEE9",
"Y  c #F5F2DE",
"T  c #F3F0DA",
"R  c #ECE6B8",
"E  c #DCC657",
"W  c #C8AD38",
"Q  c #231D00",
"!  c #635A46",
"~  c #F8E2B1",
"^  c #F1DEA5",
"/  c #F0DDA3",
"(  c #F2DEA8",
")  c #F3DFAA",
"_  c #E9D69E",
"`  c #CEC17C",
"'  c #DACF88",
"]  c #CEB422",
"[  c #EBDA9E",
"{  c #C2AC38",
"}  c #EEDCA0",
"|  c #D5CC73",
" . c #D1C96B",
".. c #D4CB73",
"X. c #DDD289",
"o. c #DFD48E",
"O. c #C1B86B",
"+. c #817A16",
"@. c #C9BF71",
"#. c #CAB21C",
"$. c #D7C977",
"%. c #BAA122",
"&. c #595436",
"*. c #D7CD76",
"=. c #D6CD79",
"-. c #CCBE6B",
";. c #D8CC82",
":. c #C4AA0B",
">. c #BFAA33",
",. c #A99211",
"<. c #1F1A00",
"1. c #3F3708",
"2. c #9F8915",
"3. c #A28C1C",
"4. c #A38C0B",
"5. c #C0B33F",
"6. c #5F581C",
"7. c #252420",
"8. c #5F5F5F",
"9. c gray17",
"0. c #88834D",
"q. c #BFB23D",
"w. c #C3B539",
"e. c #BCA40B",
"r. c #9C8817",
"t. c #615C26",
"y. c #988383",
"u. c #9A7171",
"i. c gray37",
"p. c #323232",
"a. c #6A5D0B",
"s. c #766600",
"d. c #5E4E00",
"f. c #353535",
"g. c #896A6A",
"h. c #956767",
"j. c #3A3A3A",
"k. c #484848",
"l. c #A5A5A5",
"z. c #9F8B8B",
"x. c gray100",
"c. c gray100",
"v. c gray100",
"b. c gray100",
"n. c gray100",
"m. c gray100",
"M. c gray100",
"N. c gray100",
"B. c gray100",
"V. c gray100",
"C. c gray100",
"Z. c gray100",
"A. c gray100",
"S. c gray100",
"D. c gray100",
"F. c gray100",
"G. c gray100",
"H. c gray100",
"J. c gray100",
"K. c gray100",
"L. c gray100",
"P. c gray100",
"I. c gray100",
"U. c gray100",
"Y. c gray100",
"T. c gray100",
"R. c gray100",
"E. c gray100",
"W. c gray100",
"Q. c gray100",
"!. c gray100",
"~. c gray100",
"^. c gray100",
"/. c gray100",
"(. c gray100",
"). c gray100",
"_. c gray100",
"`. c gray100",
"'. c gray100",
"]. c gray100",
"[. c gray100",
"{. c gray100",
"}. c gray100",
"|. c gray100",
" X c gray100",
".X c gray100",
"XX c gray100",
"oX c gray100",
"OX c gray100",
"+X c gray100",
"@X c gray100",
"#X c gray100",
"$X c gray100",
"%X c gray100",
"&X c gray100",
"*X c gray100",
"=X c gray100",
"-X c gray100",
";X c gray100",
":X c gray100",
">X c gray100",
",X c gray100",
"<X c gray100",
"1X c gray100",
"2X c gray100",
"3X c gray100",
"4X c gray100",
"5X c gray100",
"6X c gray100",
"7X c gray100",
"8X c gray100",
"9X c gray100",
"0X c gray100",
"qX c gray100",
"wX c gray100",
"eX c gray100",
"rX c gray100",
"tX c gray100",
"yX c gray100",
"uX c gray100",
"iX c gray100",
"pX c gray100",
"aX c gray100",
"sX c gray100",
"dX c gray100",
"fX c gray100",
"gX c gray100",
"hX c gray100",
"jX c gray100",
"kX c gray100",
"lX c gray100",
"zX c gray100",
"xX c gray100",
"cX c gray100",
"vX c gray100",
"bX c gray100",
"nX c gray100",
"mX c gray100",
"MX c gray100",
"NX c gray100",
"BX c gray100",
"VX c gray100",
"CX c gray100",
"ZX c gray100",
"AX c gray100",
"SX c gray100",
"DX c gray100",
"FX c gray100",
"GX c gray100",
"HX c gray100",
"JX c gray100",
"KX c gray100",
"LX c gray100",
"PX c gray100",
"IX c gray100",
"UX c gray100",
"YX c None",
/* pixels */
"YXYXYXYXYX  . X o O + . . O @ YX",
"YXYXYXYX# $ % & * = - ; ; : > , ",
"YXYXYXYX< 1 2 3 = = - ; 4 5 6 7 ",
"YXYXYX8 9 0 q w e e r t y u i p ",
"YX# a s d f g h j k l l z x c v ",
"# b n m M N N B V C C C Z A S D ",
"a n F G H H H H H H H H J K L P ",
"I $ U Y T T T T T T T T R E W Q ",
"I ! ~ ^ / / / ( ) _ ` ' ] [ { Q ",
"I ! } |  . ...X.o.O.+.@.#.$.%.Q ",
"I &.*. . . ...=.o.o.-.;.:.>.,.<.",
"I 1.2.2.2.2.2.2.3.3.3.3.4.5.6.7.",
"8.9.0.q.w.w.w.w.w.w.w.e.r.t.+ y.",
"u.i.p.a.s.s.s.s.s.s.s.d.t.f.g.YX",
"YXh.i.j.j.j.j.j.j.j.j.j.k.g.YXYX",
"YXYXu.l.l.l.l.l.l.l.l.l.z.YXYXYX"
};
