/* XPM */
static char *RedFlag_xpm[] = {
/* columns rows colors chars-per-pixel */
"16 16 129 2",
"   c #5A5A5A",
".  c gray46",
"X  c #848484",
"o  c gray44",
"O  c #533C44",
"+  c #4D0019",
"@  c #660022",
"#  c #440016",
"$  c #43413D",
"%  c #584E2A",
"&  c #3F3B23",
"*  c #929292",
"=  c gray50",
"-  c #464646",
";  c #3A3A3A",
":  c #922C34",
">  c #CD2759",
",  c #C0003F",
"<  c #9E0034",
"1  c #322D23",
"2  c #D4BC6A",
"3  c #3F3500",
"4  c #6C6C6C",
"5  c #1D1D1D",
"6  c #491929",
"7  c #B23B5C",
"8  c #CC5672",
"9  c #840425",
"0  c #AE0D2D",
"q  c #B2000A",
"w  c #3C000A",
"e  c #C5B178",
"r  c #7E6B15",
"t  c #3B392F",
"y  c #3E2F2F",
"u  c #2D0D11",
"i  c #93153C",
"p  c #FE5683",
"a  c #F8336E",
"s  c #FC0D5B",
"d  c #E94975",
"f  c #810027",
"g  c #A80018",
"h  c #920018",
"j  c #402424",
"k  c #D2BC71",
"l  c #4E4208",
"z  c gray35",
"x  c #4E4E4E",
"c  c #440008",
"v  c #CD273B",
"b  c #EE406D",
"n  c #ED004F",
"m  c #E2004B",
"M  c #F74075",
"N  c #8F153A",
"B  c #9D0027",
"V  c #B30008",
"C  c #C6B58E",
"Z  c #836D00",
"A  c #2F2F2F",
"S  c #535353",
"D  c #3B232B",
"F  c #9D002F",
"G  c #CB0026",
"H  c #EA1A5C",
"J  c #CD3360",
"K  c #8F0933",
"L  c #AE0010",
"P  c #870008",
"I  c #715148",
"U  c #C1AA4E",
"Y  c #3B330C",
"T  c gray30",
"R  c gray37",
"E  c #281018",
"W  c #3E000B",
"Q  c #C80947",
"!  c #AB093D",
"~  c #8F002F",
"^  c #5E0018",
"/  c #95886A",
"(  c #AC9323",
")  c #1B1B1B",
"_  c #888888",
"`  c gray32",
"'  c #191919",
"]  c #50081F",
"[  c #1D0009",
"{  c #101010",
"}  c #635A47",
"|  c #C9AF47",
" . c #221C00",
".. c #272727",
"X. c #938455",
"o. c #8C7A2A",
"O. c #312E1F",
"+. c #656565",
"@. c gray16",
"#. c #565656",
"$. c #37342C",
"%. c #5B5444",
"&. c #413912",
"*. c #646464",
"=. c #747474",
"-. c #767676",
";. c gray100",
":. c gray100",
">. c gray100",
",. c gray100",
"<. c gray100",
"1. c gray100",
"2. c gray100",
"3. c gray100",
"4. c gray100",
"5. c gray100",
"6. c gray100",
"7. c gray100",
"8. c gray100",
"9. c gray100",
"0. c gray100",
"q. c gray100",
"w. c gray100",
"e. c gray100",
"r. c gray100",
"t. c gray100",
"y. c gray100",
"u. c gray100",
"i. c None",
/* pixels */
"i.i.i.i.i.i.i.i.i.  . . X . o i.",
"i.i.i.i.i.i.i.i.O + @ # $ % & o ",
"i.i.i.i.* = - ; : > , < 1 2 3 . ",
"i.i.* 4 5 6 7 8 9 0 q w e r t i.",
"i.y u i p a s d f g h j k l z i.",
"x c v b n m M N B V c C Z A i.i.",
"S D c F G H J K L P I U Y T i.i.",
"i.o R E W Q ! ~ V ^ / ( ) _ i.i.",
"i.i.i.* ` ' ] [ { } |  .4 i.i.i.",
"i.i.i.i.i.= ..i.$ X.o.O.i.i.i.i.",
"i.i.i.i.i.i.i.i.1 2 3 +.i.i.i.i.",
"i.i.i.i.i.i.i.@.e r t i.i.i.i.i.",
"i.i.i.i.i.i.#.$.k l z i.i.i.i.i.",
"i.i.i.i.i.i.; C Z A i.i.i.i.i.i.",
"i.i.i.i.i.i.T %.&.*.i.i.i.i.i.i.",
"i.i.i.i.i.i.i.=.-.i.i.i.i.i.i.i."
};
