/* XPM */
static char * Redo_xpm[] = {
"16 16 86 1",
" 	c None",
".	c #8C5959",
"+	c #653232",
"@	c #936060",
"#	c #9F8B8B",
"$	c #4C4C4C",
"%	c #101010",
"&	c #4F4F4F",
"*	c #A27474",
"=	c #A89494",
"-	c #A9A9A9",
";	c #A5A5A5",
">	c #979797",
",	c #3A3A3A",
"'	c #99485C",
")	c #5B2935",
"!	c #976E6E",
"~	c #8E6F6F",
"{	c #686868",
"]	c #464646",
"^	c #232323",
"/	c #903F59",
"(	c #FC81A2",
"_	c #5A2B36",
":	c #525252",
"<	c #916363",
"[	c #535353",
"}	c #510921",
"|	c #730026",
"1	c #8C002E",
"2	c #990033",
"3	c #C10040",
"4	c #E73871",
"5	c #EAA9B9",
"6	c #67323F",
"7	c #A28E8E",
"8	c #575757",
"9	c #BC003E",
"0	c #D60047",
"a	c #DE0049",
"b	c #E3004B",
"c	c #DC0049",
"d	c #E85586",
"e	c #787878",
"f	c #3E0014",
"g	c #C20040",
"h	c #CE0044",
"i	c #D2003E",
"j	c #DA0046",
"k	c #D91147",
"l	c #BC335A",
"m	c #3B0B1B",
"n	c #5F5F5F",
"o	c #403C3A",
"p	c #62061A",
"q	c #D30046",
"r	c #970031",
"s	c #5A001D",
"t	c #93000B",
"u	c #C90023",
"v	c #9A0015",
"w	c #450F21",
"x	c #5E5E5E",
"y	c #9A7171",
"z	c #100500",
"A	c #880F1D",
"B	c #AB0038",
"C	c #492531",
"D	c #6F0000",
"E	c #A80017",
"F	c #956767",
"G	c #940030",
"H	c #3F3F3F",
"I	c #8F5252",
"J	c #5E0017",
"K	c #37000F",
"L	c #1C130F",
"M	c #6C0C17",
"N	c #B0003A",
"O	c #760027",
"P	c #131313",
"Q	c #696969",
"R	c #272727",
"S	c #565656",
"T	c #6E3A3A",
"U	c #966363",
"                ",
"                ",
"         .+@    ",
"        #$%&*   ",
"   =-;;;>,')&!  ",
"  ~{],,,,^/(_:< ",
" ~[}|122223456:!",
"78}90abbbbacd5_&",
"efgcc0hhhhijklmn",
"opqc0rsssstuvwxy",
"zAccBCxx8^DEmxF ",
"zAccGHI  ,JKny  ",
"LMNNOH   $Pn*   ",
"QRRRRS   .TU    ",
"                ",
"                "};
