/* XPM */
static char *Reply_xpm[] = {
/* columns rows colors chars-per-pixel */
"16 16 257 2",
"   c #8F6666",
".  c gray36",
"X  c #3D3C27",
"o  c #2D2A13",
"O  c #4A4A42",
"+  c #868686",
"@  c #926464",
"#  c #4E4E4E",
"$  c #3F3607",
"%  c #A49B4F",
"&  c #A59838",
"*  c #5E5616",
"=  c #29271D",
"-  c #8E7F7F",
";  c #8B8B8B",
":  c #41411E",
">  c #BEAD65",
",  c #F8F1DA",
"<  c #D8CD7D",
"1  c #B9A835",
"2  c #514D04",
"3  c gray38",
"4  c #A06D6D",
"5  c #727272",
"6  c #574B04",
"7  c #D2C57C",
"8  c #E4DAA0",
"9  c #D3C872",
"0  c #BFAF33",
"q  c #937F07",
"w  c gray18",
"e  c #827373",
"r  c #4A4A1B",
"t  c #B5AA5A",
"y  c #C1B541",
"u  c #BEAE32",
"i  c #B0960B",
"p  c #605A00",
"a  c #595454",
"s  c #484848",
"d  c #4E4207",
"f  c #9C8F16",
"g  c #A18D0D",
"h  c #6E5E00",
"j  c #312E1F",
"k  c #7B6161",
"l  c #622F2F",
"z  c #381919",
"x  c gray19",
"c  c #070707",
"v  c #48461D",
"b  c #413B0E",
"n  c #1E1E0E",
"m  c gray12",
"M  c #3C3232",
"N  c #4A1717",
"B  c gray30",
"V  c #C1C1C1",
"C  c #CBCBCB",
"Z  c gray",
"A  c gray70",
"S  c #AEAEAE",
"D  c #272727",
"F  c #544444",
"G  c #4B3131",
"H  c gray34",
"J  c gray88",
"K  c #E9E9E9",
"L  c #DADADA",
"P  c gray65",
"I  c #131313",
"U  c #1C2932",
"Y  c #02070A",
"T  c #828276",
"R  c #92927E",
"E  c #969682",
"W  c #575743",
"Q  c #7C7C7C",
"!  c #162128",
"~  c #4190C1",
"^  c #0E2433",
"/  c #3A3A3A",
"(  c #757557",
")  c #6E6000",
"_  c #6C5D00",
"`  c #3D3A00",
"'  c #242D32",
"]  c #5B9AC1",
"[  c #53BCFF",
"{  c #307DAD",
"}  c #2B6E99",
"|  c #08161E",
" . c #111111",
".. c #171711",
"X. c #8E7600",
"o. c #836E00",
"O. c #6D5F00",
"+. c #9B8100",
"@. c #252000",
"#. c #051F2D",
"$. c #2DA9EE",
"%. c #48B8FF",
"&. c #199FE8",
"*. c #0E99E3",
"=. c #021E2D",
"-. c #9D8484",
";. c #655656",
":. c #8C7400",
">. c #7D6900",
",. c #5E5200",
"<. c #9E8300",
"1. c #1D1800",
"2. c #393939",
"3. c #07364D",
"4. c #2298DB",
"5. c #0B2331",
"6. c #756100",
"7. c #463A00",
"8. c #605555",
"9. c #3E2020",
"0. c #093E59",
"q. c #00111A",
"w. c #6E3A3A",
"e. c #675D00",
"r. c #5E5600",
"t. c #332E00",
"y. c #7A6F00",
"u. c #171500",
"i. c #684E4E",
"p. c #252525",
"a. c #0F0F00",
"s. c #070700",
"d. c #131300",
"f. c #030300",
"g. c gray100",
"h. c gray100",
"j. c gray100",
"k. c gray100",
"l. c gray100",
"z. c gray100",
"x. c gray100",
"c. c gray100",
"v. c gray100",
"b. c gray100",
"n. c gray100",
"m. c gray100",
"M. c gray100",
"N. c gray100",
"B. c gray100",
"V. c gray100",
"C. c gray100",
"Z. c gray100",
"A. c gray100",
"S. c gray100",
"D. c gray100",
"F. c gray100",
"G. c gray100",
"H. c gray100",
"J. c gray100",
"K. c gray100",
"L. c gray100",
"P. c gray100",
"I. c gray100",
"U. c gray100",
"Y. c gray100",
"T. c gray100",
"R. c gray100",
"E. c gray100",
"W. c gray100",
"Q. c gray100",
"!. c gray100",
"~. c gray100",
"^. c gray100",
"/. c gray100",
"(. c gray100",
"). c gray100",
"_. c gray100",
"`. c gray100",
"'. c gray100",
"]. c gray100",
"[. c gray100",
"{. c gray100",
"}. c gray100",
"|. c gray100",
" X c gray100",
".X c gray100",
"XX c gray100",
"oX c gray100",
"OX c gray100",
"+X c gray100",
"@X c gray100",
"#X c gray100",
"$X c gray100",
"%X c gray100",
"&X c gray100",
"*X c gray100",
"=X c gray100",
"-X c gray100",
";X c gray100",
":X c gray100",
">X c gray100",
",X c gray100",
"<X c gray100",
"1X c gray100",
"2X c gray100",
"3X c gray100",
"4X c gray100",
"5X c gray100",
"6X c gray100",
"7X c gray100",
"8X c gray100",
"9X c gray100",
"0X c gray100",
"qX c gray100",
"wX c gray100",
"eX c gray100",
"rX c gray100",
"tX c gray100",
"yX c gray100",
"uX c gray100",
"iX c gray100",
"pX c gray100",
"aX c gray100",
"sX c gray100",
"dX c gray100",
"fX c gray100",
"gX c gray100",
"hX c gray100",
"jX c gray100",
"kX c gray100",
"lX c gray100",
"zX c gray100",
"xX c gray100",
"cX c gray100",
"vX c gray100",
"bX c gray100",
"nX c gray100",
"mX c gray100",
"MX c gray100",
"NX c gray100",
"BX c gray100",
"VX c gray100",
"CX c gray100",
"ZX c gray100",
"AX c gray100",
"SX c gray100",
"DX c gray100",
"FX c gray100",
"GX c gray100",
"HX c gray100",
"JX c gray100",
"KX c gray100",
"LX c gray100",
"PX c gray100",
"IX c gray100",
"UX c gray100",
"YX c None",
/* pixels */
"YXYX  . X o O + YXYXYXYXYXYXYXYX",
"YX@ # $ % & * = - YXYXYXYXYXYXYX",
"YX; : > , < 1 2 3 4 YXYXYXYXYXYX",
"YX5 6 7 8 9 0 q w 4 YXYXYXYXYXYX",
"YXe r t y u i p a YXYXYXYXYXYXYX",
"YXYXs d f g h j k YXYXYXYXYXYXYX",
"l z x c v b n m M N YXYXYXYXYXYX",
"# B V V C Z A S ; D F G YXYXYXYX",
"# H A J K L L P S I U Y YXYXYXYX",
"# H T R E E E W Q ! ~ ^ / / / / ",
"# H ( ) _ _ _ ` ' ] [ { } } } | ",
"#  ...X.o.O.+.@.#.$.%.&.*.*.*.=.",
"-.;.D :.>.,.<.1.2.3.4.5.I I I I ",
"YXYXD :.6.7.<.1.8.9.0.q.w.w.w.w.",
"YXYXD e.r.t.y.u.i.YX9.p.YXYXYXYX",
"YXYXD a.a.s.d.f.i.YXYXYXYXYXYXYX"
};
