/* XPM */
static char *ReplyAll_xpm[] = {
/* columns rows colors chars-per-pixel */
"16 16 257 2",
"   c #8F6666",
".  c gray36",
"X  c #3D3C27",
"o  c #2D2A13",
"O  c #4A4A42",
"+  c #585858",
"@  c #393827",
"#  c #868686",
"$  c #926464",
"%  c #4E4E4E",
"&  c #3F3607",
"*  c #A49B4F",
"=  c #A59838",
"-  c #5E5616",
";  c #29271D",
":  c #66620B",
">  c #8E7F7F",
",  c #8B8B8B",
"<  c #41411E",
"1  c #BEAD65",
"2  c #F8F1DA",
"3  c #D8CD7D",
"4  c #B9A835",
"5  c #514D04",
"6  c #7B784B",
"7  c #DFD48E",
"8  c #C0AF46",
"9  c gray38",
"0  c #A06D6D",
"q  c #727272",
"w  c #574B04",
"e  c #D2C57C",
"r  c #E4DAA0",
"t  c #D3C872",
"y  c #BFAF33",
"u  c #937F07",
"i  c #636153",
"p  c #DAD082",
"a  c #C6B743",
"s  c gray18",
"d  c #827373",
"f  c #4A4A1B",
"g  c #B5AA5A",
"h  c #C1B541",
"j  c #BEAE32",
"k  c #B0960B",
"l  c #605A00",
"z  c #75724B",
"x  c #595454",
"c  c #484848",
"v  c #4E4207",
"b  c #9C8F16",
"n  c #A18D0D",
"m  c #6E5E00",
"M  c #110E00",
"N  c #696404",
"B  c #312E1F",
"V  c #7B6161",
"C  c #622F2F",
"Z  c #381919",
"A  c gray19",
"S  c #070707",
"D  c #48461D",
"F  c #413B0E",
"G  c #1E1E0E",
"H  c black",
"J  c #232100",
"K  c gray12",
"L  c #3C3232",
"P  c #4A1717",
"I  c gray30",
"U  c #C1C1C1",
"Y  c #CBCBCB",
"T  c gray",
"R  c gray70",
"E  c #AEAEAE",
"W  c gray23",
"Q  c #6A6A6A",
"!  c #272727",
"~  c gray34",
"^  c gray88",
"/  c #E9E9E9",
"(  c #DADADA",
")  c gray65",
"_  c #28353D",
"`  c #02070A",
"'  c #9B9B9B",
"]  c #703232",
"[  c #828276",
"{  c #92927E",
"}  c #969682",
"|  c #575743",
" . c gray44",
".. c #162128",
"X. c #4190C1",
"o. c #0E2433",
"O. c #2F2F2F",
"+. c gray9",
"@. c #3A3A3A",
"#. c #757557",
"$. c #6E6000",
"%. c #6C5D00",
"&. c #252200",
"*. c #30383D",
"=. c #5B9AC1",
"-. c #53BCFF",
";. c #307DAD",
":. c #2B6E99",
">. c #08161E",
",. c #111111",
"<. c #171711",
"1. c #8E7600",
"2. c #836E00",
"3. c #6D5F00",
"4. c #9B8100",
"5. c #1D1800",
"6. c #051F2D",
"7. c #2DA9EE",
"8. c #48B8FF",
"9. c #199FE8",
"0. c #0E99E3",
"q. c #021E2D",
"w. c #9D8484",
"e. c #655656",
"r. c #8C7400",
"t. c #7D6900",
"y. c #5E5200",
"u. c #9E8300",
"i. c #4E4900",
"p. c #083746",
"a. c #2298DB",
"s. c #0B2331",
"d. c #131313",
"f. c #756100",
"g. c #463A00",
"h. c #947D00",
"j. c #262600",
"k. c #0B404F",
"l. c #00111A",
"z. c #645A5A",
"x. c #6E3A3A",
"c. c #675D00",
"v. c #5E5600",
"b. c #332E00",
"n. c #7A6F00",
"m. c #171500",
"M. c #232300",
"N. c #3E3E00",
"B. c #080800",
"V. c #684E4E",
"C. c #0F0F00",
"Z. c #070700",
"A. c #131300",
"S. c #030300",
"D. c #101000",
"F. c #020200",
"G. c gray100",
"H. c gray100",
"J. c gray100",
"K. c gray100",
"L. c gray100",
"P. c gray100",
"I. c gray100",
"U. c gray100",
"Y. c gray100",
"T. c gray100",
"R. c gray100",
"E. c gray100",
"W. c gray100",
"Q. c gray100",
"!. c gray100",
"~. c gray100",
"^. c gray100",
"/. c gray100",
"(. c gray100",
"). c gray100",
"_. c gray100",
"`. c gray100",
"'. c gray100",
"]. c gray100",
"[. c gray100",
"{. c gray100",
"}. c gray100",
"|. c gray100",
" X c gray100",
".X c gray100",
"XX c gray100",
"oX c gray100",
"OX c gray100",
"+X c gray100",
"@X c gray100",
"#X c gray100",
"$X c gray100",
"%X c gray100",
"&X c gray100",
"*X c gray100",
"=X c gray100",
"-X c gray100",
";X c gray100",
":X c gray100",
">X c gray100",
",X c gray100",
"<X c gray100",
"1X c gray100",
"2X c gray100",
"3X c gray100",
"4X c gray100",
"5X c gray100",
"6X c gray100",
"7X c gray100",
"8X c gray100",
"9X c gray100",
"0X c gray100",
"qX c gray100",
"wX c gray100",
"eX c gray100",
"rX c gray100",
"tX c gray100",
"yX c gray100",
"uX c gray100",
"iX c gray100",
"pX c gray100",
"aX c gray100",
"sX c gray100",
"dX c gray100",
"fX c gray100",
"gX c gray100",
"hX c gray100",
"jX c gray100",
"kX c gray100",
"lX c gray100",
"zX c gray100",
"xX c gray100",
"cX c gray100",
"vX c gray100",
"bX c gray100",
"nX c gray100",
"mX c gray100",
"MX c gray100",
"NX c gray100",
"BX c gray100",
"VX c gray100",
"CX c gray100",
"ZX c gray100",
"AX c gray100",
"SX c gray100",
"DX c gray100",
"FX c gray100",
"GX c gray100",
"HX c gray100",
"JX c gray100",
"KX c gray100",
"LX c gray100",
"PX c gray100",
"IX c gray100",
"UX c gray100",
"YX c None",
/* pixels */
"YXYX  . X o O + @ o O # YXYXYXYX",
"YX$ % & * = - ; : = - ; > YXYXYX",
"YX, < 1 2 3 4 5 6 7 8 5 9 0 YXYX",
"YXq w e r t y u i p a u s 0 YXYX",
"YXd f g h j k l z j k l x YXYXYX",
"YXYXc v b n m M N n m B V YXYXYX",
"C Z A S D F G H J F G K L P YXYX",
"% I U U Y T R E , W Q % , ! YXYX",
"% ~ R ^ / ( ( ) ) K _ ` ' ! ] YX",
"% ~ [ { } } } |  ...X.o.O.+.@.@.",
"% ~ #.$.%.%.%.&.*.=.-.;.:.:.:.>.",
"% ,.<.1.2.3.4.5.6.7.8.9.0.0.0.q.",
"w.e.! r.t.y.u.5.i.p.a.s.d.d.d.d.",
"YXYX! r.f.g.u.5.h.j.k.l.z.x.x.x.",
"YXYX! c.v.b.n.m.c.M.N.B.V.YXYXYX",
"YXYX! C.C.Z.A.S.C.Z.D.F.V.YXYXYX"
};
