/* XPM */
static char *Save_xpm[] = {
/* columns rows colors chars-per-pixel */
"16 16 129 2",
"   c gray38",
".  c gray29",
"X  c gray32",
"o  c #585858",
"O  c #515151",
"+  c #484848",
"@  c gray18",
"#  c #2C2C2C",
"$  c #2F2F2F",
"%  c #4B4B4B",
"&  c #414141",
"*  c gray26",
"=  c #888888",
"-  c gray46",
";  c gray43",
":  c #777777",
">  c gray56",
",  c gray23",
"<  c gray19",
"1  c #7C7C7C",
"2  c #9F9F9F",
"3  c #7E7E7E",
"4  c #A5A5A5",
"5  c gray49",
"6  c #A0A0A0",
"7  c gray54",
"8  c #9A9A9A",
"9  c #A7A7A7",
"0  c #AFAFAF",
"q  c #818181",
"w  c gray48",
"e  c #747474",
"r  c #727272",
"t  c gray45",
"y  c #767676",
"u  c #717171",
"i  c #909090",
"p  c gray59",
"a  c #898989",
"s  c #686868",
"d  c #5B5B5B",
"f  c DimGray",
"g  c gray51",
"h  c #646464",
"j  c #DDDDDD",
"k  c gray61",
"l  c gray52",
"z  c #C1C1C1",
"x  c #D8D8D8",
"c  c #CDCDCD",
"v  c gray82",
"b  c gray47",
"n  c #C5C5C5",
"m  c #5F5F5F",
"M  c #4C4C4C",
"N  c #B1B1B1",
"B  c #D0D0D0",
"V  c #CACACA",
"C  c gray75",
"Z  c #D5D5D5",
"A  c gray16",
"S  c gray36",
"D  c #B4B4B4",
"F  c gray79",
"G  c gray78",
"H  c #CBCBCB",
"J  c gray15",
"K  c #202020",
"L  c #444444",
"P  c #494949",
"I  c gray30",
"U  c #313131",
"Y  c #393939",
"T  c #131313",
"R  c gray37",
"E  c gray100",
"W  c gray100",
"Q  c gray100",
"!  c gray100",
"~  c gray100",
"^  c gray100",
"/  c gray100",
"(  c gray100",
")  c gray100",
"_  c gray100",
"`  c gray100",
"'  c gray100",
"]  c gray100",
"[  c gray100",
"{  c gray100",
"}  c gray100",
"|  c gray100",
" . c gray100",
".. c gray100",
"X. c gray100",
"o. c gray100",
"O. c gray100",
"+. c gray100",
"@. c gray100",
"#. c gray100",
"$. c gray100",
"%. c gray100",
"&. c gray100",
"*. c gray100",
"=. c gray100",
"-. c gray100",
";. c gray100",
":. c gray100",
">. c gray100",
",. c gray100",
"<. c gray100",
"1. c gray100",
"2. c gray100",
"3. c gray100",
"4. c gray100",
"5. c gray100",
"6. c gray100",
"7. c gray100",
"8. c gray100",
"9. c gray100",
"0. c gray100",
"q. c gray100",
"w. c gray100",
"e. c gray100",
"r. c gray100",
"t. c gray100",
"y. c gray100",
"u. c gray100",
"i. c None",
/* pixels */
"  . X o o o o o o o o o o X .   ",
". O + @ # # # # # # # # $ % O . ",
"& * = - ; ; ; ; ; ; ; ; : > * & ",
", < = - ; ; ; ; ; ; ; ; : > < , ",
", < = - ; ; ; ; ; ; ; ; 1 2 < , ",
", < = - ; ; ; ; ; ; ; ; 3 4 < , ",
", < = - ; ; ; ; ; ; ; ; 5 6 < , ",
", < 1 = 7 7 7 8 2 9 9 0 6 q < , ",
", < w e r r r r r t - - y w < , ",
", < u i p 7 7 7 7 a s d f g < , ",
", < h j k l z x c v b O ; > < , ",
", < h n m M N B V c 1 O ; > < , ",
", < h C m M N Z n v 1 O ; > < , ",
", A S C 5 u D F G H 1 O ; > < , ",
"r J K M L L P I I O U K # Y T , ",
"i.r , , , , , , , , , , , , , R "
};
