/* XPM */
static char *Undo_xpm[] = {
/* columns rows colors chars-per-pixel */
"16 16 129 2",
"   c #936060",
".  c #653232",
"X  c #8C5959",
"o  c #A27474",
"O  c gray31",
"+  c #101010",
"@  c #4C4C4C",
"#  c #9F8B8B",
"$  c #976E6E",
"%  c #5B2935",
"&  c #99485C",
"*  c #3A3A3A",
"=  c #979797",
"-  c #A5A5A5",
";  c #A9A9A9",
":  c #A89494",
">  c #916363",
",  c gray32",
"<  c #5A2B36",
"1  c #FC81A2",
"2  c #903F59",
"3  c #232323",
"4  c #464646",
"5  c #686868",
"6  c #8E6F6F",
"7  c #67323F",
"8  c #EAA9B9",
"9  c #E73871",
"0  c #C10040",
"q  c #990033",
"w  c #8C002E",
"e  c #730026",
"r  c #510921",
"t  c #535353",
"y  c #E85586",
"u  c #DC0049",
"i  c #DE0049",
"p  c #E3004B",
"a  c #D60047",
"s  c #BC003E",
"d  c gray34",
"f  c #A28E8E",
"g  c #5F5F5F",
"h  c #3B0B1B",
"j  c #BC335A",
"k  c #D91147",
"l  c #DA0046",
"z  c #D2003E",
"x  c #CE0044",
"c  c #C20040",
"v  c #3E0014",
"b  c gray47",
"n  c #9A7171",
"m  c gray37",
"M  c #450F21",
"N  c #9A0015",
"B  c #C90023",
"V  c #93000B",
"C  c #5A001D",
"Z  c #970031",
"A  c #D30046",
"S  c #62061A",
"D  c #403C3A",
"F  c #956767",
"G  c #A80017",
"H  c #6F0000",
"J  c #492531",
"K  c #AB0038",
"L  c #880F1D",
"P  c #100500",
"I  c #37000F",
"U  c #5E0017",
"Y  c #8F5252",
"T  c #3F3F3F",
"R  c #940030",
"E  c #131313",
"W  c #760027",
"Q  c #B0003A",
"!  c #6C0C17",
"~  c #1C130F",
"^  c #966363",
"/  c #6E3A3A",
"(  c #565656",
")  c #272727",
"_  c DimGray",
"`  c gray100",
"'  c gray100",
"]  c gray100",
"[  c gray100",
"{  c gray100",
"}  c gray100",
"|  c gray100",
" . c gray100",
".. c gray100",
"X. c gray100",
"o. c gray100",
"O. c gray100",
"+. c gray100",
"@. c gray100",
"#. c gray100",
"$. c gray100",
"%. c gray100",
"&. c gray100",
"*. c gray100",
"=. c gray100",
"-. c gray100",
";. c gray100",
":. c gray100",
">. c gray100",
",. c gray100",
"<. c gray100",
"1. c gray100",
"2. c gray100",
"3. c gray100",
"4. c gray100",
"5. c gray100",
"6. c gray100",
"7. c gray100",
"8. c gray100",
"9. c gray100",
"0. c gray100",
"q. c gray100",
"w. c gray100",
"e. c gray100",
"r. c gray100",
"t. c gray100",
"y. c gray100",
"u. c gray100",
"i. c None",
/* pixels */
"i.i.i.i.i.i.i.i.i.i.i.i.i.i.i.i.",
"i.i.i.i.i.i.i.i.i.i.i.i.i.i.i.i.",
"i.i.i.i.  . X i.i.i.i.i.i.i.i.i.",
"i.i.i.o O + @ # i.i.i.i.i.i.i.i.",
"i.i.$ O % & * = - - - ; : i.i.i.",
"i.> , < 1 2 3 * * * * 4 5 6 i.i.",
"$ , 7 8 9 0 q q q q w e r t 6 i.",
"O < 8 y u i p p p p i a s r d f ",
"g h j k l z x x x x a u u c v b ",
"n m M N B V C C C C Z a u A S D ",
"i.F m h G H 3 d m m J K u u L P ",
"i.i.n g I U * i.i.Y T R u u L P ",
"i.i.i.o g E @ i.i.i.T W Q Q ! ~ ",
"i.i.i.i.^ / X i.i.i.( ) ) ) ) _ ",
"i.i.i.i.i.i.i.i.i.i.i.i.i.i.i.i.",
"i.i.i.i.i.i.i.i.i.i.i.i.i.i.i.i."
};
