/* XPM */
static char *addrbook_xpm[] = {
/* columns rows colors chars-per-pixel */
"16 16 8 1",
"  c black",
". c cyan",
"X c red",
"o c yellow",
"O c #808080",
"+ c #C0C0C0",
"@ c gray100",
"# c None",
/* pixels */
"################",
"################",
"##    ###    ###",
"   @@@ # @@@   #",
" + @  @ @@@@ X #",
" + @@@  @  @   #",
" + @  @  @@@ @ #",
" + @@@  @  @   #",
" + @@@@  @@@ o #",
" + @  @ @@@@   #",
" + @@@  @@@@ . #",
" +    @ @      #",
" +OOOO   OOOO+ #",
"               #",
"################",
"################"
};
