/* XPM */
static char *DATA16_xpm[] = {
/* columns rows colors chars-per-pixel */
"16 16 5 1",
"  c black",
". c #808000",
"X c #808080",
"o c gray100",
"O c None",
/* pixels */
"OOOOOOOOOOOOOOOO",
"O              O",
"O oooooooooooo O",
"O o..........o O",
"O oooooooooooo O",
"O oXXXoXXXoXXo O",
"O oooooooooooo O",
"O oXXXoXXXoXXo O",
"O oooooooooooo O",
"O oXXXoXXXoXXo O",
"O oooooooooooo O",
"O oXXXoXXXoXXo O",
"O oooooooOOOoo O",
"O oooOOOOOOOOo O",
"OOOOOOOOOOOOOOOO",
"OOOOOOOOOOOOOOOO"
};
