/* XPM */
static char *download_xpm[] = {
/* columns rows colors chars-per-pixel */
"16 16 9 1",
"  c black",
". c blue",
"X c #008000",
"o c #008080",
"O c #808000",
"+ c yellow",
"@ c #808080",
"# c gray100",
"$ c None",
/* pixels */
"$$$@@@@@$$$$$$$$",
"$$@.$@XX $$$$$$$",
"$@#$o$XXX $$$$$$",
"@@.#oX..XX@$$$$$",
"@.$XX.X.XX $$$$$",
"@.XXXXX.X. $$$$$",
"@...XXXXo.   $$$",
"@..   XX. @$$ $ ",
"$@ +#+      $$  ",
"$$ #+#+#+#+ $   ",
"$$ +#+#+#+# $$$$",
"$$ #+#          ",
"$$ +# OOOOOOOO $",
"$$ # OOOOOOOO $$",
"$$  OOOOOOOO $$$",
"$$          $$$$"
};
