/* XPM */
static char *FORMAT16_xpm[] = {
/* columns rows colors chars-per-pixel */
"16 16 6 1",
"  c black",
". c blue",
"X c #808000",
"o c #808080",
"O c gray100",
"+ c None",
/* pixels */
"+ OOOOOOOOOOOO +",
"+ OOOOOOOOOOOO +",
"+ OoooOoooOooO +",
"+ OOOOOOOOOOOO +",
"+ OoooOoooOooO +",
"+ OOOOOOOOOOOO +",
"+          .   +",
"++++++++++..++++",
"+++++++++.......",
"++++++++++..++++",
"+          .   +",
"+ OOOOOOOOOOOO +",
"+ OXXXXXXXXXXO +",
"+ OOOOOOOOOOOO +",
"+ OoooOoooOooO +",
"+ OOOOOOOOOOOO +"
};
