/* XPM */
static char *highlite_xpm[] = {
/* columns rows colors chars-per-pixel */
"16 16 7 1",
"  c black",
". c blue",
"X c #008000",
"o c #800080",
"O c #808080",
"+ c #C0C0C0",
"@ c None",
/* pixels */
"@@@@@@@@@@   @@@",
"@@@@@@@@@  O. @@",
"@@@@@@@@ OO . @@",
"@@@@@@@ OOXO @@@",
"@@@@@@ OOXO @@@@",
"@@@@@ .OXO @@@@@",
"@@@@ ..OO @@@@@@",
"@@@ +O.O @@@@@@@",
"@@ +OOO @@@@@@@@",
"@@     @@@@@@@@@",
"@@@@@@@@@@@@@@@@",
"oooooooooooooooo",
"oooooooooooooooo",
"oooooooooooooooo",
"oooooooooooooooo",
"@@@@@@@@@@@@@@@@"
};
