/* XPM */
static char *italic_xpm[] = {
/* columns rows colors chars-per-pixel */
"16 16 3 1",
"  c black",
". c #808080",
"X c None",
/* pixels */
"XXXXXXXXXXXXXXXX",
"XXXXXXXXXXXXXXXX",
"XXXXXXXXXXXXXXXX",
"XXXXXXXXXXXXXXXX",
"XXXXXXX     XXXX",
"XXXXXXXX  .XXXXX",
"XXXXXXX.  XXXXXX",
"XXXXXXX  .XXXXXX",
"XXXXXX.  XXXXXXX",
"XXXXXX  .XXXXXXX",
"XXXXX.  XXXXXXXX",
"XXXXX  .XXXXXXXX",
"XXX      XXXXXXX",
"XXXXXXXXXXXXXXXX",
"XXXXXXXXXXXXXXXX",
"XXXXXXXXXXXXXXXX"
};
