/* XPM */
static char *mail2_xpm[] = {
/* columns rows colors chars-per-pixel */
"16 16 6 1",
"  c black",
". c yellow",
"X c #808080",
"o c #C0C0C0",
"O c gray100",
"+ c None",
/* pixels */
"++++++++++++++++",
"++++++++++++++++",
"+XXXXXXXXXXXXX++",
"+X .O.O.O.O. X +",
"+X. .o.o.o. .X +",
"+XO. .o.o. .oX +",
"+X.o. .o. .o.X +",
"+XO. . . . .oX +",
"+X. .o. .o. .X +",
"+X .o.o.o.o. X +",
"+X.o.o.o.o.o.X +",
"+XXXXXXXXXXXXX +",
"++             +",
"++++++++++++++++",
"++++++++++++++++",
"++++++++++++++++"
};
