/* XPM */
static char *message_xpm[] = {
/* columns rows colors chars-per-pixel */
"16 16 5 1",
"  c black",
". c navy",
"X c #800000",
"o c gray100",
"O c None",
/* pixels */
"OOOOOOOOOOOOOOOO",
"OOOOOOOOOOOOOOOO",
"OOOOOOOOOOOOOOOO",
"               O",
" ooooooooooooo O",
" o    oooooXXo O",
" ooooooooooXXo O",
" ooooooooooooo O",
" oooo......ooo O",
" ooooooooooooo O",
" oooo.....oooo O",
" ooooooooooooo O",
"               O",
"OOOOOOOOOOOOOOOO",
"OOOOOOOOOOOOOOOO",
"OOOOOOOOOOOOOOOO"
};
