/* XPM */
static char *pen_xpm[] = {
/* columns rows colors chars-per-pixel */
"16 16 8 1",
"  c black",
". c #800000",
"X c red",
"o c #808000",
"O c yellow",
"+ c #808080",
"@ c #C0C0C0",
"# c None",
/* pixels */
"################",
"########### . ##",
"########## .X. #",
"######### oo.X.#",
"######## Oooo. #",
"####### OO@oo ##",
"###### OO@+o ###",
"##### OO@+o ####",
"#### OO@+o #####",
"### OO@+o ######",
"## OO@+o #######",
"#  O@+o ########",
"# o +o #########",
"# oo  ##########",
"#    ###########",
"################"
};
