/* XPM */
static char *person116_xpm[] = {
/* columns rows colors chars-per-pixel */
"16 16 9 1",
"  c black",
". c #800080",
"X c magenta",
"o c #808000",
"O c yellow",
"+ c #808080",
"@ c #C0C0C0",
"# c gray100",
"$ c None",
/* pixels */
"$$$$$$$$$$$$$$$$",
"$$$$  oooo $$$$$",
"$$$ oOOOOOO $$$$",
"$$$ OOOOoOOO $$$",
"$$ oOOOo#@@+ $$$",
"$$ oOOO@#++ $$$$",
"$$ oOo @#@# $$$$",
"$$ oOo@@##@+ $$$",
"$$$ ooo@##+ $$$$",
"$$$ ooo####+$$$$",
"$$$$  +++++ $$$$",
"$$$$  +@#+$$$$$$",
"$$$  ..o@+ $$$$$",
"$$ ...X+o... $$$",
"$$ ...   . . $$$",
"$$$$$$$$$$$$$$$$"
};
