/* XPM */
static char *SvrWorld_xpm[] = {
/* columns rows colors chars-per-pixel */
"16 16 9 1",
"  c black",
". c navy",
"X c blue",
"o c green",
"O c red",
"+ c #808080",
"@ c #C0C0C0",
"# c gray100",
"$ c None",
/* pixels */
"$$$$$$$$$$$$$$$$",
"$  X   $ ++++++ ",
" oo  X  @@@@@@+ ",
" oo .++++++ o@+ ",
"X  .@@@@@@+ +@+ ",
"XXX @+#Oo@+ @@+ ",
" XX.@++++@+ +@+ ",
"  X.@@@@@@+ #@+ ",
"$   @++++@+ .@+ ",
"$$$+@####@+ #@+ ",
"$$$+@.XX.@+ +@+ ",
"$$$+@####@+ +@+ ",
"$$$+@++++@+ @@+ ",
"$$$+@+##+@+ +++ ",
"$$$+@@@@@@+    $",
"$$$+        $$$$"
};
