/* XPM */
static char *websrch_xpm[] = {
/* columns rows colors chars-per-pixel */
"16 16 13 1",
"  c black",
". c navy",
"X c blue",
"o c #008000",
"O c #008080",
"+ c cyan",
"@ c #800000",
"# c red",
"$ c magenta",
"% c #808080",
"& c #C0C0C0",
"* c gray100",
"= c None",
/* pixels */
"=====%%%%%======",
"===%%&*XOO%%====",
"==%*&*X     .===",
"=%*&O         ==",
"=%&*  XXX O   ==",
"%&*&*XX%% O  X =",
"%***Xo%*+& XXO =",
"%&*&&%*+&+& X. =",
"%O&&&%+&+&+ .. =",
"%O&XO%&+&+& X. =",
"%oXXX&%&+& %%. =",
"=XoXXXo%  %*#@==",
"=.XXXXXoX.O@$#@=",
"==.XX..X.X..@$#@",
"===.......  =@# ",
"=====     ====  "
};
